<?xml version="1.0" encoding="UTF-8" standalone="no"?>
<!-- Created with Inkscape (http://www.inkscape.org/) -->

<svg
   width="200"
   height="248.15007"
   viewBox="0 0 52.916665 65.656372"
   version="1.1"
   id="svg1"
   inkscape:version="1.3.2 (091e20e, 2023-11-25, custom)"
   sodipodi:docname="Sticker Draft.svg"
   xml:space="preserve"
   xmlns:inkscape="http://www.inkscape.org/namespaces/inkscape"
   xmlns:sodipodi="http://sodipodi.sourceforge.net/DTD/sodipodi-0.dtd"
   xmlns:xlink="http://www.w3.org/1999/xlink"
   xmlns="http://www.w3.org/2000/svg"
   xmlns:svg="http://www.w3.org/2000/svg"><sodipodi:namedview
     id="namedview1"
     pagecolor="#ffffff"
     bordercolor="#000000"
     borderopacity="0.25"
     inkscape:showpageshadow="2"
     inkscape:pageopacity="0.0"
     inkscape:pagecheckerboard="0"
     inkscape:deskcolor="#959595"
     inkscape:document-units="px"
     showborder="false"
     inkscape:zoom="0.25"
     inkscape:cx="-486"
     inkscape:cy="826"
     inkscape:window-width="1440"
     inkscape:window-height="821"
     inkscape:window-x="-7"
     inkscape:window-y="-7"
     inkscape:window-maximized="1"
     inkscape:current-layer="g6"
     showguides="true"
     inkscape:export-bgcolor="#ffffff00" /><defs
     id="defs1"><linearGradient
       inkscape:collect="always"
       id="linearGradient42"><stop
         style="stop-color:#ff6d00;stop-opacity:1;"
         offset="0"
         id="stop41" /><stop
         style="stop-color:#ffa243;stop-opacity:1;"
         offset="1"
         id="stop42" /></linearGradient><linearGradient
       inkscape:collect="always"
       xlink:href="#linearGradient42"
       id="linearGradient51"
       gradientUnits="userSpaceOnUse"
       gradientTransform="matrix(0.20211806,0,0,0.20211806,83.711421,71.155904)"
       x1="62.43222"
       y1="35.349697"
       x2="9.7942638"
       y2="93.02298" /></defs><g
     inkscape:label="Layer 1"
     inkscape:groupmode="layer"
     id="layer1"
     transform="translate(405.98813,0.98736124)"><circle
       style="fill:none;fill-opacity:1;stroke:none;stroke-width:7.65909;stroke-dasharray:none;paint-order:markers stroke fill"
       id="circle86"
       cx="39.075157"
       cy="-348.90881"
       r="67.008141"
       transform="rotate(90)" /><circle
       style="fill:none;fill-opacity:1;stroke:none;stroke-width:9.27147;stroke-dasharray:none;paint-order:markers stroke fill"
       id="circle87"
       cx="-40.397652"
       cy="-348.90881"
       r="81.114769"
       transform="matrix(0,-1,-1,0,0,0)" /><text
       xml:space="preserve"
       style="font-weight:bold;font-size:18.095px;line-height:1;font-family:Inter;-inkscape-font-specification:'Inter Bold';text-align:center;letter-spacing:0px;text-anchor:middle;fill:#ffffff;fill-opacity:1;stroke:none;stroke-width:0;stroke-linecap:round;stroke-dasharray:none;paint-order:markers stroke fill"
       id="text86"><textPath
         xlink:href="#circle86"
         startOffset="50%"
         id="textPath86"
         style="font-size:18.095px;fill:#ffffff;fill-opacity:1;stroke:none;stroke-width:0;stroke-dasharray:none">OPENTRACKS</textPath></text><text
       xml:space="preserve"
       style="font-weight:bold;font-size:14.476px;line-height:1;font-family:Inter;-inkscape-font-specification:'Inter Bold';text-align:center;letter-spacing:1.01785px;text-anchor:middle;fill:#ffffff;fill-opacity:1;stroke:none;stroke-width:0;stroke-linecap:round;stroke-dasharray:none;paint-order:markers stroke fill"
       id="text87"><textPath
         xlink:href="#circle87"
         startOffset="50%"
         id="textPath87"
         style="font-size:14.476px;letter-spacing:1.01785px;stroke-width:0">PRIVATE SPORT TRACKER</textPath></text><text
       xml:space="preserve"
       style="font-weight:bold;font-size:18.095px;line-height:1;font-family:Inter;-inkscape-font-specification:'Inter Bold';text-align:center;letter-spacing:0px;text-anchor:middle;fill:#ffffff;fill-opacity:1;stroke:none;stroke-width:0;stroke-linecap:round;stroke-dasharray:none;paint-order:markers stroke fill"
       id="text8"
       transform="translate(217.26608)"><textPath
         xlink:href="#circle86"
         startOffset="50%"
         id="textPath8"
         style="font-size:18.095px;fill:#ffffff;fill-opacity:1;stroke:none;stroke-width:0;stroke-dasharray:none">OPENTRACKS</textPath></text><text
       xml:space="preserve"
       style="font-weight:bold;font-size:14.476px;line-height:1;font-family:Inter;-inkscape-font-specification:'Inter Bold';text-align:center;letter-spacing:1.01785px;text-anchor:middle;fill:#ffffff;fill-opacity:1;stroke:none;stroke-width:0;stroke-linecap:round;stroke-dasharray:none;paint-order:markers stroke fill"
       id="text9"
       transform="translate(217.26608)"><textPath
         xlink:href="#circle87"
         startOffset="50%"
         id="textPath9"
         style="font-size:14.476px;letter-spacing:1.01785px;stroke-width:0">PRIVATE SPORT TRACKER</textPath></text><text
       xml:space="preserve"
       style="font-weight:bold;font-size:18.095px;line-height:1;font-family:Inter;-inkscape-font-specification:'Inter Bold';text-align:center;letter-spacing:0px;text-anchor:middle;fill:#ffffff;fill-opacity:1;stroke:none;stroke-width:0;stroke-linecap:round;stroke-dasharray:none;paint-order:markers stroke fill"
       id="text20"
       transform="translate(446.73922)"><textPath
         xlink:href="#circle86"
         startOffset="50%"
         id="textPath20"
         style="font-size:18.095px;fill:#ffffff;fill-opacity:1;stroke:none;stroke-width:0;stroke-dasharray:none">OPENTRACKS</textPath></text><text
       xml:space="preserve"
       style="font-weight:bold;font-size:14.476px;line-height:1;font-family:Inter;-inkscape-font-specification:'Inter Bold';text-align:center;letter-spacing:1.01785px;text-anchor:middle;fill:#ffffff;fill-opacity:1;stroke:none;stroke-width:0;stroke-linecap:round;stroke-dasharray:none;paint-order:markers stroke fill"
       id="text21"
       transform="translate(446.73922)"><textPath
         xlink:href="#circle87"
         startOffset="50%"
         id="textPath21"
         style="font-size:14.476px;letter-spacing:1.01785px;stroke-width:0">PRIVATE SPORT TRACKER</textPath></text><g
       id="g6"
       transform="matrix(8.421714,0,0,8.4260976,-1069.0171,-554.47886)"
       inkscape:export-filename="..\sticker_final.png"
       inkscape:export-xdpi="96"
       inkscape:export-ydpi="96"><g
         id="g1"
         transform="matrix(0.2,0,0,0.2,62.982806,52.55021)"><path
           id="path4"
           style="fill:#030527;fill-opacity:1;stroke:#ffffff;stroke-width:1.05864;stroke-dasharray:none;paint-order:markers stroke fill"
           d="M 79.963916,66.217083 H 108.9099 a 0.70608945,0.70608945 0 0 1 0.70609,0.706087 v 29.25735 a 1.1294177,1.1294177 0 0 1 -0.63476,1.015334 l -13.909554,6.776456 a 1.4493415,1.4493415 0 0 1 -1.269542,0 L 79.89259,97.195854 A 1.1294177,1.1294177 0 0 1 79.257827,96.18052 V 66.92317 a 0.70608945,0.70608945 0 0 1 0.706089,-0.706087 z"
           sodipodi:nodetypes="cccccc"
           inkscape:export-filename="Draft 2.png"
           inkscape:export-xdpi="96"
           inkscape:export-ydpi="96" /><path
           id="path5"
           style="fill:#6c8fbe;fill-opacity:1;stroke:none;stroke-width:0.0622732;paint-order:markers stroke fill"
           d="M 79.963916,66.217083 H 108.9099 a 0.70608945,0.70608945 0 0 1 0.70609,0.706087 v 29.25735 a 1.1294177,1.1294177 0 0 1 -0.63476,1.015334 l -13.909554,6.776456 a 1.4493415,1.4493415 0 0 1 -1.269542,0 L 79.89259,97.195854 A 1.1294177,1.1294177 0 0 1 79.257827,96.18052 V 66.92317 a 0.70608945,0.70608945 0 0 1 0.706089,-0.706087 z"
           sodipodi:nodetypes="cccccc" /><path
           d="m 80.51033,66.932348 c -0.375328,-6.2e-5 -0.679607,0.304217 -0.679545,0.679545 v 28.152803 c -7.3e-5,0.415754 0.237054,0.795118 0.610815,0.977201 l 7.418152,3.613733 c 2.124513,1.03495 4.214184,-2.148706 6.577376,-2.148706 2.363191,0 4.452889,3.183716 6.577372,2.148706 l 7.41764,-3.613733 c 0.37376,-0.182084 0.61088,-0.561448 0.61081,-0.977201 V 67.611893 c 6e-5,-0.375326 -0.30421,-0.679605 -0.67954,-0.679545 z"
           style="fill:#030627;stroke-width:0.059924;paint-order:markers stroke fill"
           id="path56"
           sodipodi:nodetypes="ccccsssccccc" /><path
           style="font-style:italic;font-weight:900;font-size:3.6915px;line-height:1;font-family:Inter;-inkscape-font-specification:'Inter Heavy Italic';text-align:center;letter-spacing:0px;text-anchor:middle;fill:#ff6d00;stroke-width:0.101676;stroke-linecap:round"
           d="m 82.565363,93.524247 q -0.331658,0 -0.587612,-0.127977 -0.255953,-0.129779 -0.401955,-0.37672 -0.144199,-0.248744 -0.144199,-0.607439 0,-0.337066 0.106347,-0.634477 0.106347,-0.299213 0.304621,-0.526327 0.200076,-0.227114 0.479462,-0.355091 0.279386,-0.129779 0.625464,-0.129779 0.329856,0 0.584007,0.127977 0.255954,0.127977 0.401955,0.37672 0.146002,0.248744 0.146002,0.609242 0,0.337066 -0.108149,0.634477 -0.106347,0.29741 -0.306424,0.524524 -0.198274,0.227114 -0.47766,0.356893 -0.277583,0.127977 -0.621859,0.127977 z m 0.03064,-0.634476 q 0.196471,0 0.337065,-0.09193 0.140595,-0.09373 0.230719,-0.245139 0.09013,-0.153212 0.131582,-0.331658 0.04326,-0.178447 0.04326,-0.347881 0,-0.472252 -0.421783,-0.472252 -0.196472,0 -0.338868,0.09373 -0.140595,0.09373 -0.230719,0.246941 -0.09013,0.151409 -0.133384,0.329856 -0.04146,0.176644 -0.04146,0.346078 0,0.472253 0.423586,0.472253 z m 1.542931,0.598426 0.445215,-2.68571 h 1.157199 q 0.299213,0 0.502895,0.118964 0.205484,0.117162 0.295608,0.331658 0.09013,0.214497 0.04146,0.501093 -0.04686,0.288398 -0.210891,0.49929 -0.162224,0.209088 -0.41277,0.324448 -0.248744,0.113557 -0.555167,0.113557 h -0.403758 l -0.131582,0.7967 z m 0.953518,-1.362682 h 0.255953 q 0.192867,0 0.317238,-0.10094 0.126175,-0.100939 0.155015,-0.270373 0.03064,-0.174842 -0.06309,-0.270374 -0.09373,-0.09733 -0.286596,-0.09733 h -0.255953 z m 1.467227,1.362682 0.445215,-2.68571 h 1.935874 l -0.09733,0.587612 H 87.63577 l -0.0757,0.454227 h 1.106729 l -0.09553,0.573192 H 87.46454 l -0.07931,0.483068 h 1.200459 l -0.09733,0.587611 z m 2.296372,0 0.445215,-2.68571 h 0.793096 l 0.465043,1.054457 q 0.0739,0.165829 0.129779,0.335263 0.05768,0.167631 0.102742,0.394745 0.01983,-0.205484 0.04326,-0.428992 0.02343,-0.223509 0.04686,-0.371313 l 0.164027,-0.98416 h 0.749836 l -0.445215,2.68571 h -0.793096 l -0.4344,-0.980554 q -0.09013,-0.205484 -0.149607,-0.380326 -0.05768,-0.174841 -0.117162,-0.400153 -0.02163,0.230719 -0.04506,0.439808 -0.02163,0.207286 -0.04326,0.340671 l -0.162224,0.980554 z m 3.116505,-2.098098 0.09734,-0.587612 h 2.332422 l -0.09733,0.587612 h -0.802109 l -0.34788,2.098098 h -0.728206 l 0.34788,-2.098098 z m 2.258521,2.098098 0.445215,-2.68571 h 1.157199 q 0.299213,0 0.504697,0.109952 0.207286,0.108149 0.297411,0.313633 0.09193,0.203682 0.04506,0.488475 -0.04686,0.279386 -0.200076,0.474055 -0.153212,0.194669 -0.385733,0.297411 l 0.382128,1.002184 h -0.793096 l -0.326251,-0.886825 h -0.252348 l -0.146002,0.886825 z m 0.967937,-1.452807 h 0.255954 q 0.192866,0 0.313633,-0.0739 0.122569,-0.0739 0.151409,-0.246941 0.02884,-0.171237 -0.06849,-0.248744 -0.09553,-0.07931 -0.288399,-0.07931 h -0.255953 z m 1.407745,1.452807 1.315817,-2.68571 h 0.994975 l 0.457832,2.68571 h -0.7967 l -0.06849,-0.515512 H 97.68285 l -0.232521,0.515512 z m 1.321225,-1.059864 h 0.510105 q -0.03244,-0.246941 -0.05588,-0.5065 -0.02163,-0.259558 -0.03965,-0.522722 -0.09914,0.263164 -0.201879,0.522722 -0.10094,0.259559 -0.212694,0.5065 z m 2.804676,1.095914 q -0.33166,0 -0.58581,-0.127977 -0.252349,-0.127976 -0.394745,-0.374918 -0.142397,-0.246941 -0.142397,-0.603834 0,-0.337066 0.104544,-0.634476 0.106347,-0.299214 0.304628,-0.52813 0.19827,-0.228916 0.47585,-0.358696 0.27759,-0.129779 0.62006,-0.129779 0.33707,0 0.58941,0.117162 0.25235,0.117162 0.38393,0.344276 0.13339,0.227113 0.11356,0.555167 h -0.73902 q 0.007,-0.171237 -0.0811,-0.275781 -0.0883,-0.106347 -0.27578,-0.106347 -0.19287,0 -0.33527,0.09193 -0.14239,0.09193 -0.23612,0.243336 -0.0919,0.149607 -0.13879,0.328053 -0.0451,0.178447 -0.0451,0.351486 0,0.474055 0.4308,0.474055 0.2145,0 0.3623,-0.104545 0.1478,-0.106347 0.20368,-0.277583 h 0.73902 q -0.0414,0.171236 -0.15141,0.349683 -0.10815,0.178446 -0.27938,0.329855 -0.17124,0.15141 -0.40376,0.245139 -0.23072,0.09193 -0.51912,0.09193 z m 1.47985,-0.03605 0.44521,-2.68571 h 0.74984 l -0.0955,0.576797 -0.10455,0.565982 q 0.146,-0.191064 0.39114,-0.452425 l 0.6489,-0.690354 h 0.90665 l -1.13016,1.157199 0.73542,1.528511 h -0.81473 l -0.46865,-1.079691 0.005,-0.0054 -0.40376,0.389338 -0.11536,0.695761 z m 3.89698,0.03244 q -0.34968,0 -0.60383,-0.102742 -0.25415,-0.104544 -0.37312,-0.320843 -0.11896,-0.216299 -0.0649,-0.553365 h 0.69216 q -0.0216,0.185657 0.0811,0.282991 0.10274,0.09553 0.31363,0.09553 0.17485,0 0.27578,-0.06309 0.10275,-0.06489 0.11897,-0.164026 0.0144,-0.09013 -0.0667,-0.15141 -0.0793,-0.06128 -0.29381,-0.108149 l -0.26136,-0.05768 q -0.34247,-0.0757 -0.51731,-0.257756 -0.17304,-0.183854 -0.12077,-0.49929 0.0415,-0.255953 0.20007,-0.447017 0.16043,-0.192867 0.41097,-0.299213 0.25235,-0.10815 0.57139,-0.10815 0.32625,0 0.55517,0.109952 0.23072,0.108149 0.33706,0.306423 0.10815,0.196472 0.0667,0.459635 h -0.69937 q 0.0126,-0.131581 -0.0631,-0.203681 -0.0757,-0.0739 -0.25235,-0.0739 -0.16943,0 -0.25775,0.05768 -0.0865,0.05768 -0.10094,0.147804 -0.0162,0.09553 0.0595,0.155014 0.0757,0.05948 0.25956,0.100939 l 0.21089,0.04686 q 0.4308,0.09553 0.59302,0.306423 0.16222,0.209089 0.11175,0.515513 -0.0667,0.39835 -0.36951,0.612846 -0.30281,0.212694 -0.81292,0.212694 z"
           id="text13"
           aria-label="OPENTRACKS" /><path
           d="m 80.808986,69.001541 0.181774,-1.096532 h 0.427574 q 0.124372,0 0.203852,0.04783 0.08022,0.0471 0.112597,0.130259 0.03238,0.08316 0.01398,0.191342 -0.01766,0.108917 -0.07801,0.192077 -0.06035,0.08316 -0.157488,0.130259 -0.09641,0.04636 -0.22225,0.04636 H 81.09305 l -0.05961,0.358397 z m 0.314241,-0.539435 h 0.161904 q 0.103766,0 0.161168,-0.05299 0.0574,-0.05299 0.07139,-0.133939 0.01325,-0.08242 -0.02797,-0.133202 -0.04048,-0.05151 -0.144242,-0.05151 h -0.161168 z m 0.662335,0.539435 0.181774,-1.096532 h 0.427574 q 0.187662,0 0.273765,0.09788 0.0861,0.09788 0.05888,0.259047 -0.0184,0.111861 -0.08169,0.192077 -0.06329,0.07948 -0.164112,0.119956 l 0.16264,0.427574 H 82.395649 L 82.251407,68.61003 h -0.176622 l -0.06476,0.391513 z m 0.319393,-0.573288 h 0.161904 q 0.201644,0 0.229609,-0.166319 0.02797,-0.171471 -0.174415,-0.171471 h -0.161168 z m 1.076662,-0.523244 -0.181774,1.096532 h -0.224458 l 0.181774,-1.096532 z m 0.337791,1.096532 -0.20238,-1.096532 h 0.249479 l 0.08758,0.529132 q 0.01325,0.08684 0.02355,0.181774 0.0103,0.09493 0.01987,0.204588 0.04563,-0.109653 0.08684,-0.20606 0.04121,-0.09641 0.08095,-0.180302 l 0.256839,-0.529132 h 0.248007 l -0.557097,1.096532 z m 0.621859,0 0.556361,-1.096532 h 0.294371 l 0.20238,1.096532 h -0.240648 l -0.04195,-0.254631 h -0.390042 l -0.123636,0.254631 z m 0.466578,-0.430518 h 0.274501 l -0.01619,-0.09861 q -0.01178,-0.08095 -0.02281,-0.179566 -0.0103,-0.09862 -0.02061,-0.211947 -0.04489,0.111125 -0.08684,0.209739 -0.04121,0.09788 -0.08022,0.181774 z m 1.148047,0.445237 q -0.130995,0 -0.229609,-0.05225 -0.09788,-0.05299 -0.153073,-0.152337 -0.05446,-0.100086 -0.05446,-0.242856 0,-0.133939 0.04195,-0.255367 0.04195,-0.122164 0.119956,-0.217099 0.07874,-0.09567 0.189134,-0.150865 0.111125,-0.0552 0.248007,-0.0552 0.12658,0 0.22225,0.04563 0.09641,0.04563 0.148658,0.132467 0.05299,0.08684 0.04857,0.211211 h -0.227402 q 0,-0.08905 -0.05299,-0.13909 -0.05299,-0.05078 -0.143506,-0.05078 -0.08978,0 -0.158961,0.04195 -0.06844,0.04195 -0.11554,0.111861 -0.04636,0.06991 -0.07065,0.154544 -0.02355,0.0839 -0.02355,0.169264 0,0.123636 0.06035,0.186925 0.06035,0.06255 0.163376,0.06255 0.09861,0 0.176623,-0.05004 0.07801,-0.05078 0.108917,-0.140562 h 0.227402 q -0.02944,0.102294 -0.102294,0.191341 -0.07286,0.08831 -0.181039,0.143506 -0.107445,0.05519 -0.24212,0.05519 z m 0.968481,-0.01472 0.06771,-0.412119 -0.292163,-0.684413 h 0.251687 l 0.128787,0.34147 q 0.01472,0.03753 0.02502,0.07433 0.01104,0.03606 0.02061,0.07874 0.02355,-0.04342 0.04563,-0.07948 0.02281,-0.0368 0.04857,-0.07359 l 0.236232,-0.34147 h 0.27303 l -0.512942,0.684413 -0.06844,0.412119 z m 1.115667,0 0.181774,-1.096532 h 0.721209 l -0.03091,0.18619 h -0.496751 l -0.05078,0.306881 h 0.44818 l -0.03017,0.18251 h -0.44818 l -0.06991,0.420951 z m 0.884584,0 0.181775,-1.096532 h 0.427574 q 0.187661,0 0.273765,0.09788 0.0861,0.09788 0.05887,0.259047 -0.0184,0.111861 -0.08169,0.192077 -0.06329,0.07948 -0.164112,0.119956 l 0.16264,0.427574 h -0.248743 l -0.144242,-0.391513 h -0.176623 l -0.06476,0.391513 z m 0.319393,-0.573288 h 0.161904 q 0.201644,0 0.22961,-0.166319 0.02797,-0.171471 -0.174415,-0.171471 h -0.161168 z m 1.076662,-0.523244 -0.181774,1.096532 h -0.224458 l 0.181774,-1.096532 z m 0.01693,1.096532 0.181774,-1.096532 h 0.73372 l -0.03091,0.18619 h -0.509262 l -0.04342,0.264934 h 0.470258 l -0.03091,0.18251 H 90.4386 l -0.04563,0.276708 h 0.510734 l -0.03091,0.18619 z m 0.923589,0 0.181774,-1.096532 h 0.248743 l 0.253895,0.554889 q 0.02281,0.05152 0.0471,0.118485 0.02502,0.06623 0.0471,0.156016 0.0081,-0.08169 0.01766,-0.164112 0.0096,-0.08316 0.01914,-0.13909 l 0.08684,-0.526188 h 0.22961 l -0.181775,1.096532 h -0.248743 l -0.231081,-0.503374 q -0.02208,-0.04857 -0.04048,-0.09493 -0.0184,-0.04636 -0.0368,-0.100822 -0.0184,-0.05446 -0.04195,-0.125844 -0.01104,0.104502 -0.02061,0.188398 -0.0096,0.08316 -0.01766,0.132467 l -0.08316,0.50411 z m 1.564583,0 h -0.4158 l 0.181775,-1.096532 h 0.374587 q 0.165583,0 0.276709,0.06623 0.111861,0.0655 0.15896,0.188398 0.0471,0.1229 0.01913,0.293635 -0.04268,0.257575 -0.195021,0.403288 -0.151601,0.144978 -0.400344,0.144978 z M 92.46682,68.807991 h 0.150129 q 0.158961,0 0.254631,-0.08537 0.09567,-0.0861 0.125844,-0.270086 0.03017,-0.183982 -0.03606,-0.268614 -0.0655,-0.08537 -0.222251,-0.08537 h -0.154544 z m 0.830862,0.193549 0.181774,-1.096532 h 0.224458 l -0.150865,0.910342 h 0.472466 l -0.03017,0.18619 z m 1.064152,0 0.06771,-0.412119 -0.292163,-0.684413 h 0.251687 l 0.128788,0.34147 q 0.01472,0.03753 0.02502,0.07433 0.01104,0.03606 0.02061,0.07874 0.02355,-0.04342 0.04563,-0.07948 0.02281,-0.0368 0.04857,-0.07359 l 0.236233,-0.34147 h 0.273029 l -0.512942,0.684413 -0.06844,0.412119 z m 1.451985,0.01619 q -0.117012,0 -0.195021,-0.04268 -0.07727,-0.04342 -0.111125,-0.115541 -0.03385,-0.07286 -0.01987,-0.161168 0.01619,-0.0942 0.08095,-0.156017 0.0655,-0.06255 0.16632,-0.127315 l 0.0029,-0.0015 q -0.03533,-0.05593 -0.05593,-0.118484 -0.02061,-0.06329 -0.0081,-0.139827 0.01251,-0.07506 0.0574,-0.134675 0.04489,-0.05961 0.114069,-0.0942 0.06991,-0.03459 0.156753,-0.03459 0.09052,0 0.150865,0.03753 0.06035,0.0368 0.0861,0.09935 0.02576,0.06182 0.01325,0.136146 -0.01251,0.07286 -0.05814,0.132467 -0.04563,0.05961 -0.120692,0.107446 l -0.08242,0.05299 0.14645,0.203852 q 0.03164,-0.04121 0.05299,-0.08978 0.02208,-0.04857 0.03091,-0.101558 h 0.185454 q -0.0184,0.116277 -0.05961,0.203852 -0.04121,0.08758 -0.09493,0.147186 l 0.129524,0.180302 h -0.228138 l -0.05151,-0.07139 q -0.06771,0.04636 -0.144978,0.06697 -0.07654,0.02061 -0.143506,0.02061 z m 0.186926,-0.231082 -0.163376,-0.229609 -0.01545,0.0096 q -0.06108,0.039 -0.08978,0.07506 -0.02797,0.03533 -0.03238,0.07874 -0.0059,0.05519 0.02796,0.08758 0.03385,0.03164 0.09788,0.03164 0.0861,0 0.175151,-0.05299 z m -0.105238,-0.466578 0.07286,-0.04342 q 0.04121,-0.02428 0.07212,-0.05299 0.03091,-0.02944 0.03606,-0.07065 0.0037,-0.0368 -0.02061,-0.05961 -0.02429,-0.02355 -0.06991,-0.02355 -0.05152,0 -0.08978,0.03091 -0.03827,0.03091 -0.04268,0.08537 -0.0037,0.03017 0.0074,0.06255 0.01104,0.03164 0.03459,0.07138 z m 1.472592,0.696188 q -0.130259,0 -0.229609,-0.05225 -0.09861,-0.05299 -0.154545,-0.153073 -0.05519,-0.100822 -0.05519,-0.242856 0,-0.134675 0.04195,-0.256103 0.04268,-0.122164 0.121428,-0.217099 0.07874,-0.09493 0.18987,-0.149393 0.111125,-0.0552 0.248743,-0.0552 0.129524,0 0.228138,0.05299 0.09935,0.05225 0.154545,0.152337 0.05593,0.100086 0.05593,0.242856 0,0.134675 -0.04268,0.256839 -0.04195,0.122164 -0.120692,0.217099 -0.07874,0.0942 -0.189869,0.149393 -0.110389,0.05446 -0.248008,0.05446 z m 0.0096,-0.199437 q 0.09052,0 0.158961,-0.04195 0.06844,-0.04268 0.114069,-0.112597 0.04636,-0.06991 0.06918,-0.154544 0.02355,-0.08463 0.02355,-0.169264 0,-0.122164 -0.05961,-0.185454 -0.05887,-0.06329 -0.161904,-0.06329 -0.09126,0 -0.159696,0.04268 -0.06844,0.04195 -0.114805,0.111862 -0.04636,0.06991 -0.06991,0.154544 -0.02281,0.08463 -0.02281,0.168528 0,0.1229 0.05961,0.186189 0.05961,0.06329 0.163376,0.06329 z m 0.660863,0.184718 0.181774,-1.096532 h 0.427574 q 0.124372,0 0.203852,0.04783 0.08022,0.0471 0.112597,0.130259 0.03238,0.08316 0.01398,0.191342 -0.01766,0.108917 -0.07801,0.192077 -0.06035,0.08316 -0.157488,0.130259 -0.09641,0.04636 -0.22225,0.04636 h -0.197965 l -0.05961,0.358397 z m 0.314241,-0.539435 h 0.161904 q 0.103766,0 0.161168,-0.05299 0.0574,-0.05299 0.07139,-0.133939 0.01325,-0.08242 -0.02797,-0.133202 -0.04048,-0.05151 -0.144242,-0.05151 h -0.161168 z m 0.662335,0.539435 0.181774,-1.096532 h 0.73372 l -0.03091,0.18619 H 99.39046 l -0.04342,0.264934 h 0.470258 l -0.03091,0.18251 H 99.31613 l -0.04563,0.276708 h 0.510733 l -0.03091,0.18619 z m 0.923589,0 0.181783,-1.096532 h 0.24874 l 0.25389,0.554889 q 0.0228,0.05152 0.0471,0.118485 0.025,0.06623 0.0471,0.156016 0.008,-0.08169 0.0177,-0.164112 0.01,-0.08316 0.0191,-0.13909 l 0.0868,-0.526188 h 0.22961 l -0.18178,1.096532 h -0.24874 l -0.23108,-0.503374 q -0.0221,-0.04857 -0.0405,-0.09493 -0.0184,-0.04636 -0.0368,-0.100822 -0.0184,-0.05446 -0.0419,-0.125844 -0.011,0.104502 -0.0206,0.188398 -0.01,0.08316 -0.0177,0.132467 l -0.0832,0.50411 z m 1.758133,-0.635841 -0.0294,0.176622 h -0.49896 l 0.0294,-0.176622 z m 0.51074,0.652032 q -0.13173,0 -0.22667,-0.04048 -0.0942,-0.04048 -0.13983,-0.119957 -0.0449,-0.07948 -0.0287,-0.195756 h 0.21857 q -0.008,0.08316 0.0456,0.125107 0.0537,0.04121 0.14498,0.04121 0.0898,0 0.15086,-0.03827 0.0611,-0.039 0.0714,-0.101558 0.01,-0.05593 -0.0346,-0.0861 -0.0442,-0.03091 -0.13099,-0.05299 l -0.11628,-0.03017 q -0.12952,-0.03238 -0.1987,-0.103766 -0.0684,-0.07139 -0.0486,-0.193549 0.0155,-0.09935 0.0773,-0.173679 0.0626,-0.07433 0.15896,-0.115541 0.0964,-0.04195 0.21563,-0.04195 0.12069,0 0.20826,0.04195 0.0876,0.04121 0.12953,0.114805 0.0427,0.07359 0.0287,0.170735 h -0.21636 q 0.004,-0.0655 -0.0397,-0.101558 -0.0442,-0.0368 -0.12879,-0.0368 -0.0861,0 -0.13909,0.03606 -0.0523,0.03533 -0.0618,0.09052 -0.007,0.04048 0.0125,0.06697 0.0206,0.02649 0.0574,0.04342 0.0375,0.01693 0.0832,0.02797 l 0.0942,0.02429 q 0.0883,0.02134 0.15602,0.06108 0.0677,0.03974 0.10082,0.103766 0.0339,0.06329 0.0184,0.156017 -0.025,0.149393 -0.14424,0.239176 -0.11849,0.08905 -0.31792,0.08905 z m 1.06341,-0.0015 q -0.13026,0 -0.22961,-0.05225 -0.0986,-0.05299 -0.15454,-0.153073 -0.0552,-0.100822 -0.0552,-0.242856 0,-0.134675 0.0419,-0.256103 0.0427,-0.122164 0.12143,-0.217099 0.0787,-0.09493 0.18987,-0.149393 0.11112,-0.0552 0.24874,-0.0552 0.12953,0 0.22814,0.05299 0.0994,0.05225 0.15454,0.152337 0.0559,0.100086 0.0559,0.242856 0,0.134675 -0.0427,0.256839 -0.0419,0.122164 -0.12069,0.217099 -0.0787,0.0942 -0.18987,0.149393 -0.11039,0.05446 -0.24801,0.05446 z m 0.01,-0.199437 q 0.0905,0 0.15896,-0.04195 0.0684,-0.04268 0.11407,-0.112597 0.0464,-0.06991 0.0692,-0.154544 0.0236,-0.08463 0.0236,-0.169264 0,-0.122164 -0.0596,-0.185454 -0.0589,-0.06329 -0.16191,-0.06329 -0.0913,0 -0.1597,0.04268 -0.0684,0.04195 -0.1148,0.111862 -0.0464,0.06991 -0.0699,0.154544 -0.0228,0.08463 -0.0228,0.168528 0,0.1229 0.0596,0.186189 0.0596,0.06329 0.16338,0.06329 z m 1.12229,0.200173 q -0.13909,0 -0.2355,-0.05225 -0.0957,-0.05225 -0.13835,-0.143506 -0.0427,-0.09199 -0.0228,-0.211947 l 0.11702,-0.704283 h 0.22445 l -0.11554,0.700603 q -0.0162,0.09641 0.0331,0.154545 0.0493,0.05814 0.14719,0.05814 0.0714,0 0.13025,-0.03017 0.0589,-0.03017 0.0971,-0.08095 0.039,-0.05152 0.0493,-0.116277 l 0.11407,-0.685884 h 0.22446 l -0.11848,0.719001 q -0.0199,0.119956 -0.0898,0.208268 -0.0692,0.08831 -0.17662,0.136882 -0.10671,0.04784 -0.23991,0.04784 z m 0.64173,-0.01546 0.18177,-1.096532 h 0.42758 q 0.18766,0 0.27376,0.09788 0.0861,0.09788 0.0589,0.259047 -0.0184,0.111861 -0.0817,0.192077 -0.0633,0.07948 -0.16411,0.119956 l 0.16264,0.427574 h -0.24875 l -0.14424,-0.391513 h -0.17662 l -0.0648,0.391513 z m 0.31939,-0.573288 h 0.16191 q 0.20164,0 0.2296,-0.166319 0.028,-0.171471 -0.17441,-0.171471 h -0.16117 z m 1.15982,0.588007 q -0.13099,0 -0.22961,-0.05225 -0.0979,-0.05299 -0.15307,-0.152337 -0.0545,-0.100086 -0.0545,-0.242856 0,-0.133939 0.0419,-0.255367 0.0419,-0.122164 0.11996,-0.217099 0.0787,-0.09567 0.18913,-0.150865 0.11112,-0.0552 0.24801,-0.0552 0.12658,0 0.22225,0.04563 0.0964,0.04563 0.14865,0.132467 0.053,0.08684 0.0486,0.211211 h -0.22741 q 0,-0.08905 -0.053,-0.13909 -0.053,-0.05078 -0.14351,-0.05078 -0.0898,0 -0.15896,0.04195 -0.0684,0.04195 -0.11554,0.111861 -0.0464,0.06991 -0.0707,0.154544 -0.0236,0.0839 -0.0236,0.169264 0,0.123636 0.0603,0.186925 0.0603,0.06255 0.16337,0.06255 0.0986,0 0.17663,-0.05004 0.078,-0.05078 0.10891,-0.140562 h 0.22741 q -0.0294,0.102294 -0.1023,0.191341 -0.0729,0.08831 -0.18104,0.143506 -0.10744,0.05519 -0.24212,0.05519 z m 0.62554,-0.01472 0.18177,-1.096532 h 0.73372 l -0.0309,0.18619 h -0.50927 l -0.0434,0.264934 h 0.47026 l -0.0309,0.18251 h -0.47026 l -0.0456,0.276708 h 0.51073 l -0.0309,0.18619 z"
           id="text14"
           style="font-style:italic;font-weight:bold;font-size:1.50718px;line-height:1;font-family:Inter;-inkscape-font-specification:'Inter Bold Italic';text-align:center;letter-spacing:0px;text-anchor:middle;fill:#ffffff;stroke-width:11.3039;paint-order:markers stroke fill"
           aria-label="PRIVACY FRIENDLY &amp; OPEN-SOURCE" /><path
           style="font-style:italic;font-weight:bold;font-size:1.92113px;line-height:1;font-family:Inter;-inkscape-font-specification:'Inter Bold Italic';text-align:center;letter-spacing:0px;text-anchor:middle;fill:#ffffff;stroke-width:14.4084;paint-order:markers stroke fill"
           d="m 86.920272,95.778343 q -0.167911,0 -0.28892,-0.05159 -0.12007,-0.05159 -0.178229,-0.152902 -0.05722,-0.10131 -0.03658,-0.249522 h 0.278601 q -0.01032,0.106 0.05816,0.159469 0.06848,0.05253 0.184796,0.05253 0.114443,0 0.192301,-0.04878 0.07786,-0.04972 0.09099,-0.129451 0.0122,-0.07129 -0.04409,-0.109752 -0.05628,-0.0394 -0.166974,-0.06754 l -0.148212,-0.03846 q -0.165097,-0.04127 -0.253274,-0.132266 -0.08724,-0.09099 -0.06191,-0.246707 0.0197,-0.126637 0.09849,-0.22138 0.07973,-0.09474 0.202619,-0.147274 0.122885,-0.05347 0.27485,-0.05347 0.15384,0 0.265468,0.05347 0.111628,0.05253 0.165097,0.146336 0.05441,0.0938 0.03658,0.217628 h -0.275787 q 0.0056,-0.08349 -0.05066,-0.129452 -0.05628,-0.0469 -0.164159,-0.0469 -0.109752,0 -0.177291,0.04596 -0.0666,0.04503 -0.0788,0.115381 -0.0094,0.05159 0.01595,0.08536 0.02627,0.03377 0.07317,0.05535 0.04784,0.02158 0.106,0.03565 l 0.120071,0.03096 q 0.112566,0.0272 0.198867,0.07786 0.0863,0.05065 0.128513,0.132266 0.04315,0.08067 0.02345,0.198867 -0.03189,0.190424 -0.183858,0.304867 -0.151027,0.113504 -0.405239,0.113504 z m 0.728867,-0.02064 0.231698,-1.397697 h 0.545008 q 0.158531,0 0.259841,0.06097 0.102247,0.06003 0.143522,0.166035 0.04127,0.106 0.01782,0.243894 -0.02251,0.138831 -0.09943,0.244831 -0.07692,0.106 -0.200743,0.166035 -0.122885,0.0591 -0.283291,0.0591 h -0.252336 l -0.07598,0.456832 z m 0.400548,-0.687592 h 0.206371 q 0.132265,0 0.205433,-0.06754 0.07317,-0.06754 0.09099,-0.170725 0.01689,-0.105062 -0.03565,-0.169788 -0.05159,-0.06566 -0.183858,-0.06566 H 88.12754 Z m 1.470865,0.706353 q -0.166035,0 -0.292672,-0.0666 -0.125699,-0.06754 -0.196991,-0.195115 -0.07035,-0.128513 -0.07035,-0.309557 0,-0.171663 0.05347,-0.326442 0.05441,-0.155716 0.154778,-0.276725 0.100372,-0.121009 0.242018,-0.190425 0.141645,-0.07035 0.317061,-0.07035 0.165097,0 0.290796,0.06754 0.126637,0.0666 0.196991,0.194177 0.07129,0.127575 0.07129,0.309557 0,0.171664 -0.05441,0.32738 -0.05347,0.155717 -0.153841,0.276725 -0.100371,0.120071 -0.242017,0.190425 -0.140708,0.06942 -0.316123,0.06942 z m 0.01219,-0.254212 q 0.115381,0 0.20262,-0.05347 0.08724,-0.05441 0.145398,-0.143522 0.0591,-0.08912 0.08818,-0.196991 0.03002,-0.107876 0.03002,-0.215752 0,-0.155717 -0.07598,-0.236389 -0.07504,-0.08067 -0.206372,-0.08067 -0.116318,0 -0.203557,0.05441 -0.08724,0.05347 -0.146336,0.142583 -0.0591,0.08911 -0.08911,0.196991 -0.02908,0.107876 -0.02908,0.214814 0,0.156655 0.07598,0.237327 0.07598,0.08067 0.208247,0.08067 z m 0.842371,0.235451 0.231699,-1.397697 h 0.545008 q 0.239203,0 0.348955,0.12476 0.109752,0.124761 0.07504,0.330195 -0.02345,0.142584 -0.104124,0.244831 -0.08067,0.10131 -0.209185,0.152903 l 0.207309,0.545008 h -0.317061 l -0.183858,-0.499044 h -0.225133 l -0.08255,0.499044 z m 0.407114,-0.730743 h 0.206372 q 0.257026,0 0.292672,-0.211999 0.03565,-0.218566 -0.222318,-0.218566 h -0.205434 z m 0.991521,-0.429627 0.0394,-0.237327 h 1.141609 l -0.0394,0.237327 h -0.426814 l -0.1923,1.16037 h -0.287044 l 0.1923,-1.16037 z m 1.73821,0 0.0394,-0.237327 h 1.141609 l -0.0394,0.237327 h -0.426814 l -0.192301,1.16037 h -0.287043 l 0.1923,-1.16037 z m 1.146299,1.16037 0.231698,-1.397697 h 0.545008 q 0.239204,0 0.348956,0.12476 0.109752,0.124761 0.07504,0.330195 -0.02345,0.142584 -0.104124,0.244831 -0.08067,0.10131 -0.209185,0.152903 l 0.207309,0.545008 h -0.317061 l -0.183859,-0.499044 h -0.225132 l -0.08255,0.499044 z m 0.407114,-0.730743 h 0.206371 q 0.257027,0 0.292673,-0.211999 0.03565,-0.218566 -0.222319,-0.218566 h -0.205433 z m 0.773893,0.730743 0.709167,-1.397697 h 0.375221 l 0.257964,1.397697 h -0.306743 l -0.05347,-0.324566 h -0.497167 l -0.157593,0.324566 z m 0.594725,-0.548761 h 0.349893 l -0.02064,-0.125699 q -0.01501,-0.103185 -0.02908,-0.228884 -0.01313,-0.125699 -0.02626,-0.270159 -0.05722,0.141646 -0.11069,0.267345 -0.05253,0.124761 -0.102248,0.231698 z m 1.463361,0.567522 q -0.166973,0 -0.292672,-0.0666 -0.124761,-0.06754 -0.195115,-0.194177 -0.06942,-0.127575 -0.06942,-0.309557 0,-0.170725 0.05347,-0.325504 0.05347,-0.155716 0.152902,-0.276725 0.100372,-0.121947 0.24108,-0.192301 0.141646,-0.07035 0.316123,-0.07035 0.161345,0 0.283292,0.05816 0.122885,0.05816 0.189486,0.168849 0.06754,0.11069 0.06191,0.269221 h -0.289858 q 0,-0.113504 -0.06754,-0.177292 -0.06754,-0.06472 -0.18292,-0.06472 -0.114442,0 -0.202619,0.05347 -0.08724,0.05347 -0.147274,0.142583 -0.0591,0.08912 -0.09005,0.196991 -0.03002,0.106938 -0.03002,0.215752 0,0.157593 0.07692,0.238265 0.07692,0.07973 0.208248,0.07973 0.125699,0 0.225132,-0.06379 0.09943,-0.06472 0.138832,-0.179168 h 0.289858 q -0.03752,0.130389 -0.130389,0.243894 -0.09287,0.112566 -0.230761,0.18292 -0.136956,0.07035 -0.308619,0.07035 z m 0.797344,-0.01876 0.231698,-1.397697 h 0.292673 l -0.06379,0.381787 -0.05066,0.282353 q 0.05159,-0.06379 0.108814,-0.125699 0.05722,-0.06285 0.130389,-0.136955 l 0.408991,-0.401486 h 0.365841 l -0.622867,0.605043 0.406176,0.792654 h -0.319875 l -0.302991,-0.617238 -0.224194,0.211061 -0.06754,0.406177 z m 1.381756,0 0.2317,-1.397697 h 0.93523 l -0.0394,0.237327 h -0.64914 l -0.0553,0.337698 h 0.59941 l -0.0394,0.232637 h -0.59942 l -0.0582,0.352708 h 0.65101 l -0.0394,0.237327 z m 1.17725,0 0.2317,-1.397697 h 0.54501 q 0.2392,0 0.34895,0.12476 0.10976,0.124761 0.075,0.330195 -0.0234,0.142584 -0.10413,0.244831 -0.0807,0.10131 -0.20918,0.152903 l 0.20731,0.545008 h -0.31706 l -0.18386,-0.499044 h -0.22513 l -0.0825,0.499044 z m 0.40712,-0.730743 h 0.20637 q 0.25702,0 0.29267,-0.211999 0.0357,-0.218566 -0.22232,-0.218566 h -0.20543 z"
           id="text15"
           aria-label="SPORT TRACKER" /><g
           id="g64"
           transform="translate(0,-1.0583333)"><circle
             style="fill:#6c8fbe;fill-opacity:1;stroke-width:22.8634;stroke-linecap:square;stroke-linejoin:round;paint-order:markers stroke fill"
             id="path54"
             cx="94.436905"
             cy="81.214409"
             r="6.9583354" /><g
             id="g63"><path
               style="fill:url(#linearGradient51);fill-opacity:1;stroke:#030627;stroke-width:1.56104;stroke-linecap:round;stroke-dasharray:none;stroke-opacity:1;paint-order:markers stroke fill"
               d="m 100.59798,73.364446 c 0.1429,-0.488312 -0.0901,-0.662534 -0.51804,-0.38745 l -14.115714,9.077325 c -0.427882,0.275074 -0.362805,0.53116 0.144319,0.568955 l 5.862421,0.437381 c 0.507324,0.03799 1.069412,0.458204 1.249091,0.933986 l 2.078183,5.499236 c 0.179885,0.475782 0.443649,0.465678 0.586543,-0.02245 z"
               id="path13" /><path
               id="path15"
               style="fill:#ffffff;stroke-width:0.776221;paint-order:markers stroke fill"
               inkscape:transform-center-x="1.1533289e-05"
               inkscape:transform-center-y="1.0105876e-05"
               d="m 89.561348,73.641593 c 0,0 -0.599132,-0.0082 -0.790705,0.18273 -0.189113,0.188539 -0.182725,0.78001 -0.182725,0.78001 0,0 0.0064,-0.591471 -0.182734,-0.78001 -0.191564,-0.190995 -0.790705,-0.18273 -0.790705,-0.18273 0,0 0.599141,0.0083 0.790705,-0.182725 0.189105,-0.188549 0.182734,-0.78001 0.182734,-0.78001 0,0 -0.0064,0.591461 0.182725,0.78001 0.191573,0.190994 0.790705,0.182725 0.790705,0.182725 z"
               sodipodi:nodetypes="cacacacac" /><path
               id="path23"
               style="fill:#ffffff;stroke-width:0.637045;paint-order:markers stroke fill"
               inkscape:transform-center-x="-3.187175e-05"
               inkscape:transform-center-y="7.3847719e-06"
               d="m 103.71317,85.643252 c 0,0 -0.49171,-0.0068 -0.64893,0.149972 -0.15521,0.154734 -0.14997,0.640148 -0.14997,0.640148 0,0 0.005,-0.485414 -0.14997,-0.640148 -0.15722,-0.156749 -0.64892,-0.149972 -0.64892,-0.149972 0,0 0.4917,0.0068 0.64892,-0.149967 0.15521,-0.154733 0.14997,-0.640147 0.14997,-0.640147 0,0 -0.005,0.485414 0.14997,0.640147 0.15722,0.15675 0.64893,0.149967 0.64893,0.149967 z"
               sodipodi:nodetypes="cacacacac" /><path
               id="path24"
               style="fill:#ffffff;stroke-width:1.36588;paint-order:markers stroke fill"
               inkscape:transform-center-x="3.6704414e-05"
               inkscape:transform-center-y="-1.6484546e-06"
               d="m 86.433789,86.630732 c 0,0 -1.054273,-0.01454 -1.391372,0.321548 -0.332763,0.331768 -0.321539,1.372535 -0.321539,1.372535 0,0 0.01122,-1.040767 -0.321539,-1.372535 -0.3371,-0.336095 -1.391372,-0.321548 -1.391372,-0.321548 0,0 1.054272,0.01454 1.391372,-0.321545 0.332762,-0.331767 0.321539,-1.372534 0.321539,-1.372534 0,0 -0.01122,1.040767 0.321539,1.372534 0.337099,0.336086 1.391372,0.321545 1.391372,0.321545 z"
               sodipodi:nodetypes="cacacacac" /><path
               id="path25"
               style="fill:#ffffff;stroke-width:0.414199;paint-order:markers stroke fill"
               inkscape:transform-center-x="6.208635e-06"
               inkscape:transform-center-y="2.2264783e-06"
               d="m 104.82459,77.210582 c 0,0 -0.31971,-0.0043 -0.42192,0.09751 -0.10091,0.100609 -0.0975,0.416219 -0.0975,0.416219 0,0 0.003,-0.31561 -0.0975,-0.416219 -0.10223,-0.101915 -0.42194,-0.09751 -0.42194,-0.09751 0,0 0.31971,0.0043 0.42194,-0.09751 0.1009,-0.100609 0.0975,-0.416214 0.0975,-0.416214 0,0 -0.003,0.315605 0.0975,0.416214 0.10221,0.10192 0.42192,0.09751 0.42192,0.09751 z"
               sodipodi:nodetypes="cacacacac" /></g></g><path
           id="path26"
           style="fill:#030627;fill-opacity:1;stroke-width:0.482596;stroke-linecap:round;stroke-linejoin:round;paint-order:stroke fill markers"
           d="m 93.510579,99.910339 c -0.07163,0 -0.1297,0.05807 -0.1297,0.129701 3.8e-5,0.0204 0.0049,0.0406 0.01422,0.0588 l 0.249116,0.42866 0.177853,-0.0212 0.06107,-0.0991 -0.266296,-0.441489 c -0.02428,-0.03466 -0.06394,-0.0553 -0.106259,-0.05529 z"
           sodipodi:nodetypes="cccccccc" /><path
           id="path29"
           style="fill:#030627;fill-opacity:1;stroke-width:0.482596;stroke-linecap:round;stroke-linejoin:round;paint-order:stroke fill markers"
           d="m 93.510579,99.910339 c -0.07163,0 -0.1297,0.05807 -0.1297,0.129701 3.8e-5,0.0204 0.0049,0.0406 0.01422,0.0588 l 0.249116,0.42866 0.177853,-0.0212 0.06107,-0.0991 -0.266296,-0.441489 c -0.02428,-0.03466 -0.06394,-0.0553 -0.106259,-0.05529 z"
           sodipodi:nodetypes="cccccccc" /><path
           id="path32"
           style="fill:#030627;fill-opacity:1;stroke-width:0.482596;stroke-linecap:round;stroke-linejoin:round;paint-order:stroke fill markers"
           d="m 95.364343,99.910339 c 0.07163,0 0.129699,0.05807 0.129699,0.129701 -3.7e-5,0.0204 -0.0049,0.0406 -0.01422,0.0588 l -0.249116,0.42866 -0.177853,-0.0212 -0.06107,-0.0991 0.266296,-0.441489 c 0.02428,-0.03466 0.06394,-0.0553 0.106259,-0.05529 z"
           sodipodi:nodetypes="cccccccc" /><path
           id="path35"
           style="fill:#030627;fill-opacity:1;stroke-width:0.482596;stroke-linecap:round;stroke-linejoin:round;paint-order:stroke fill markers"
           d="m 95.364343,99.910339 c 0.07163,0 0.129699,0.05807 0.129699,0.129701 -3.7e-5,0.0204 -0.0049,0.0406 -0.01422,0.0588 l -0.249116,0.42866 -0.177853,-0.0212 -0.06107,-0.0991 0.266296,-0.441489 c 0.02428,-0.03466 0.06394,-0.0553 0.106259,-0.05529 z"
           sodipodi:nodetypes="cccccccc" /><path
           id="path42"
           style="fill:#030627;fill-opacity:1;stroke-width:0.643862;stroke-linecap:round;stroke-linejoin:round;paint-order:stroke fill markers"
           d="m 94.436416,100.30116 a 1.5031372,1.5031372 0 0 0 -1.493848,1.34601 h 2.988697 a 1.5031372,1.5031372 0 0 0 -1.494849,-1.34601 z" /><ellipse
           style="fill:#ffffff;fill-opacity:1;stroke-width:0.525293;stroke-linecap:round;stroke-linejoin:round;paint-order:stroke fill markers"
           id="ellipse42"
           cx="114.99454"
           cy="103.31548"
           rx="0.14338191"
           ry="0.15950531"
           transform="matrix(1,0,-0.20566309,0.97862286,0,0)" /><ellipse
           style="fill:#ffffff;fill-opacity:1;stroke-width:0.52377;stroke-linecap:round;stroke-linejoin:round;paint-order:stroke fill markers"
           id="ellipse43"
           cx="-77.021469"
           cy="102.71661"
           rx="0.14338191"
           ry="0.15858072"
           transform="matrix(-1,0,0.17634456,0.9843285,0,0)" /></g></g></g></svg>
