<?xml version="1.0" encoding="UTF-8" standalone="no"?>
<svg
   height="22"
   width="22"
   fill="#000000"
   version="1.0"
   x="0px"
   y="0px"
   viewBox="0 0 21.84952 21.99934"
   enable-background="new 0 0 99.316 99.997"
   xml:space="preserve"
   id="svg10"
   sodipodi:docname="ic_activity_swimming_open.svg"
   inkscape:version="1.1.1 (3bf5ae0d25, 2021-09-20, custom)"
   inkscape:export-filename="/home/peter/StudioProjects/OpenTracks/drawable-svg/ic_activity_swimming_open.png"
   inkscape:export-xdpi="1309.09"
   inkscape:export-ydpi="1309.09"
   xmlns:inkscape="http://www.inkscape.org/namespaces/inkscape"
   xmlns:sodipodi="http://sodipodi.sourceforge.net/DTD/sodipodi-0.dtd"
   xmlns="http://www.w3.org/2000/svg"
   xmlns:svg="http://www.w3.org/2000/svg"
   xmlns:rdf="http://www.w3.org/1999/02/22-rdf-syntax-ns#"
   xmlns:cc="http://creativecommons.org/ns#"
   xmlns:dc="http://purl.org/dc/elements/1.1/"><metadata
     id="metadata16"><rdf:RDF><cc:Work
         rdf:about=""><dc:format>image/svg+xml</dc:format><dc:type
           rdf:resource="http://purl.org/dc/dcmitype/StillImage" /></cc:Work></rdf:RDF></metadata><defs
     id="defs14" /><sodipodi:namedview
     pagecolor="#000000"
     bordercolor="#666666"
     borderopacity="1"
     objecttolerance="10"
     gridtolerance="10"
     guidetolerance="10"
     inkscape:pageopacity="1"
     inkscape:pageshadow="2"
     inkscape:window-width="1920"
     inkscape:window-height="1047"
     id="namedview12"
     showgrid="false"
     inkscape:pagecheckerboard="false"
     inkscape:zoom="15.890191"
     inkscape:cx="10.006173"
     inkscape:cy="13.719156"
     inkscape:window-x="0"
     inkscape:window-y="0"
     inkscape:window-maximized="1"
     inkscape:current-layer="svg10"
     inkscape:document-rotation="0" /><path
     id="path2"
     style="fill:#ffffff;stroke-width:0.150857"
     d="m 2.8183594,17.572266 c -0.1057708,4.65e-4 -0.2130618,0.01356 -0.3222656,0.04102 -0.5746803,0.180329 -1.4355469,0.402344 -1.4355469,0.402344 v 1.28125 c 0.7432174,0.01415 1.3912167,-0.563498 2.1523437,-0.361328 1.0837672,0.428407 1.295504,0.454005 2.0175782,0.273437 0.6943098,-0.32007 1.5217861,-0.441266 2.2207031,-0.05859 0.6952388,0.311815 1.4408397,0.06801 2.1035156,-0.191407 0.7544435,-0.246702 1.4211805,0.277917 2.1484375,0.335938 0.621051,-0.0088 1.351954,-0.399393 1.818402,-0.396552 0.536698,0.02254 1.051376,0.234242 1.498081,0.382763 0.357762,0.07663 0.717881,0.02104 0.970698,-0.07223 0.717277,-0.264623 1.521787,-0.441266 2.220704,-0.05859 0.695237,0.311815 1.440839,0.06801 2.103515,-0.191407 0.229629,-0.07509 0.450663,-0.07784 0.667969,-0.04492 v -1.314453 c -0.295925,-0.04096 -0.594072,-0.02791 -0.892578,0.09961 -0.681973,0.357628 -1.511565,0.358833 -2.19336,0 -0.726431,-0.310175 -1.451915,0.04817 -2.144531,0.246093 -0.116646,0.02861 -0.230986,0.0388 -0.34375,0.03711 v -0.0078 c -0.304634,0.02335 -0.610512,-0.122847 -0.878909,-0.189453 -1.061726,-0.598921 -2.285933,0.148857 -3.056646,0.16011 -0.510364,-0.111475 -1.41674,-0.556159 -2.1425779,-0.246093 -0.6819724,0.357628 -1.5115649,0.358833 -2.1933593,0 C 6.410287,17.389044 5.6848033,17.747388 4.9921875,17.945312 4.2276707,18.132803 3.558755,17.569011 2.8183594,17.572266 Z"
     transform="matrix(0.99997,0,0,0.99997,-0.07491,0)"
     sodipodi:nodetypes="sccccccccccsccccccccccccccs" /><path
     id="path2-1-1"
     style="fill:#ffffff;stroke-width:0.150857"
     d="m 10.229667,15.445213 c -0.2340521,-0.01177 -0.6643302,0.02851 -0.8995889,0.129006 -0.6819724,0.357628 -1.5115649,0.358834 -2.1933593,0 C 6.410287,15.264044 5.6848033,15.622386 4.9921875,15.820312 4.1184541,16.034604 3.3697256,15.266655 2.4960938,15.486328 1.9214135,15.666657 1.0605469,15.890625 1.0605469,15.890625 v 1.28125 c 0.7432175,0.01415 1.3912167,-0.563498 2.1523437,-0.361328 1.0837672,0.428406 1.2955041,0.454006 2.0175782,0.273437 0.6943098,-0.320069 1.5217861,-0.441275 2.2207031,-0.05859 0.3325161,0.149133 0.6767832,0.169105 1.0175781,0.123047 1.1763193,-0.377141 1.78456,-0.510947 3.130219,0.05666 0.64547,0.05184 1.34431,-0.445591 2.223297,-0.423842 0.264657,-0.01332 1.092167,0.246652 1.478515,0.365234 h 0.002 c 0.560757,0.08029 1.135035,-0.115511 1.658204,-0.320312 0.754443,-0.246704 1.42118,0.277917 2.148437,0.335937 0.679991,0.06611 1.277834,-0.402757 1.941406,-0.40039 v -1.3125 c -0.0096,3.1e-4 -0.01967,-5.36e-4 -0.0293,0 -0.739183,-0.01326 -1.383132,0.559654 -2.140625,0.363281 -0.69207,-0.197542 -1.41674,-0.556158 -2.142578,-0.246094 -1.655465,0.798879 -2.131536,-0.136064 -3.123047,-0.109375 -0.566651,-0.01017 -1.078155,0.324314 -1.626953,0.392578 -0.768304,0.02005 -1.124822,-0.242268 -1.758614,-0.404396 z"
     transform="matrix(0.99997,0,0,0.99997,-0.07491,0)"
     sodipodi:nodetypes="cccccccccccccccccccccccccc" /><path
     id="path851"
     style="fill:#ffffff;stroke-width:0.849248"
     d="m 11.681761,12.380821 c 0.04001,0.858093 -1.022037,1.463089 -1.7399012,0.992415 -0.759078,-0.4024 -0.73974,-1.624431 0.03148,-2.002787 0.7401222,-0.430195 1.7286822,0.151027 1.7084202,1.010372 z" /><path
     style="fill:#ffffff;fill-opacity:1;stroke:none;stroke-width:0.860781px;stroke-linecap:butt;stroke-linejoin:miter;stroke-opacity:1"
     d="m 3.355712,15.036148 3.6383028,-2.22847 -1.842207,-1.95125 3.722552,-1.9372846 c 0.680734,-0.2722312 1.1638102,0.4017839 0.797146,0.8475309 l -2.609068,1.3782717 4.4254312,4.254431 c -0.969784,-0.283917 -1.159653,-0.733088 -1.9352852,-0.477299 -2.04824,0.675474 -1.613096,0.0034 -3.081487,0.01516 -1.659598,0.01323 -1.380005,0.838666 -3.1153848,0.09891 z"
     id="path2791"
     sodipodi:nodetypes="cccccccssc" /><path
     id="rect4320"
     style="fill:#ffffff;stroke-width:1.00154;stroke-linecap:square;paint-order:markers fill stroke"
     d="m 21.108524,13.306347 c -0.260342,0.07218 -0.504886,-0.363252 -0.886457,-0.333843 -0.682913,0.05263 -0.688525,0.273741 -1.170401,0.333103 -0.56376,-0.01179 -0.705141,-0.39106 -1.323093,-0.385461 -0.797244,0.05005 -0.816589,0.344784 -1.506419,0.327831 -0.635156,-0.006 -0.584758,-0.400757 -1.137589,-0.37363 -0.445887,0 -0.423469,0.363096 -1.030167,0.33682 0.804394,-1.992062 7.313411,-2.472785 7.054126,0.09518 z"
     sodipodi:nodetypes="cscccccc" /><path
     id="rect4573"
     style="fill:#ffffff;stroke-width:1.00154;stroke-linecap:square;paint-order:markers fill stroke"
     d="m 15.952342,6.3416747 0.804782,0.00553 c 0.791609,0.9558102 1.568049,2.3417023 2.288114,5.3258424 l -1.791332,0.368162 c 0.0085,-1.595974 -0.327662,-3.5171502 -1.301564,-5.6995303 z"
     sodipodi:nodetypes="ccccc" /><path
     id="rect5178"
     style="fill:#ffffff;stroke-width:1.00154;stroke-linecap:square;paint-order:markers fill stroke"
     d="M 15.714534,5.7993213 16.460602,5.694421 C 17.892566,5.5299173 18.930384,6.2178215 19.826278,7.1622728 18.315795,6.5191329 17.758674,6.2722082 16.194793,6.4666796 14.820535,6.8297473 13.804944,7.2159692 13.25106,7.9257197 13.396619,7.3313592 13.938011,6.4826988 15.714534,5.7993213 Z"
     sodipodi:nodetypes="cccccc" /><path
     id="rect5178-8"
     style="fill:#ffffff;stroke-width:0.961457;stroke-linecap:square;paint-order:markers fill stroke"
     d="m 16.165622,5.4722594 c -0.08973,0.080465 -0.17851,0.1681115 -0.26532,0.2648771 l -0.0964,0.1131325 0.390891,0.6164106 C 17.150623,5.4034465 17.686156,5.2561052 19.060064,4.8593949 18.032481,4.6520987 17.033002,4.6944293 16.165622,5.4722594 Z" /><path
     id="rect5178-5"
     style="fill:#ffffff;stroke-width:0.928756;stroke-linecap:square;paint-order:markers fill stroke"
     d="M 16.314771,5.73079 C 16.294181,5.717361 16.273991,5.703711 16.252891,5.690635 L 15.674258,5.3521611 c -1.591186,-0.4463567 -2.388606,-0.054483 -2.781886,0.3520817 0.738652,-0.2696642 1.645743,-0.011014 2.795776,0.4705547 0.09419,0.057052 0.180726,0.1118664 0.264194,0.1668772 z" /></svg>
