<?xml version="1.0" encoding="UTF-8" standalone="no"?>
<svg xmlns:dc="http://purl.org/dc/elements/1.1/"
    xmlns:cc="http://creativecommons.org/ns#"
    xmlns:rdf="http://www.w3.org/1999/02/22-rdf-syntax-ns#"
    xmlns="http://www.w3.org/2000/svg"
    id="svg6"
    version="1.1"
    height="24px"
    width="24px"
    fill="black"
    viewBox="0 0 24 24">
    <metadata id="metadata12">
        <rdf:RDF>
            <cc:Work rdf:about="">
                <dc:format>image/svg+xml</dc:format>
                <dc:type rdf:resource="http://purl.org/dc/dcmitype/StillImage" />
            </cc:Work>
        </rdf:RDF>
    </metadata>
    <path
        id="dotSmall"
        d="m 14.24,12.01 2.32,2.32 C 16.84,13.61 17,12.82 17,12 17,11.18 16.84,10.41 16.57,9.69 Z" />
    <path
        id="dotBig"
        d="m 19.53,6.71 -1.26,1.26 c 0.63,1.21 0.98,2.57 0.98,4.02 0,1.45 -0.36,2.82 -0.98,4.02 l 1.2,1.2 C 20.44,15.67 21.01,13.85 21.01,11.9 21,10.01 20.46,8.23 19.53,6.71 Z" />
    <path
        d="M 12.88,16.29 11,18.17 V 14.41 Z M 11,5.83 12.88,7.71 11,9.59 Z M 15.71,7.71 10,2 H 9 V 9.59 L 4.41,5 3,6.41 8.59,12 3,17.59 4.41,19 9,14.41 V 22 h 1 L 15.71,16.29 11.41,12 Z"
        id="path4" />
</svg>
