<?xml version="1.0" encoding="UTF-8" standalone="no"?>
<svg xmlns:cc="http://creativecommons.org/ns#"
    xmlns:dc="http://purl.org/dc/elements/1.1/"
    xmlns:rdf="http://www.w3.org/1999/02/22-rdf-syntax-ns#"
    height="48"
    id="svg2"
    version="1.1"
    viewBox="0 0 48 48"
    width="48"
    xmlns="http://www.w3.org/2000/svg">
    <defs id="defs6" />
    <g
        style="display:inline"
        id="layer1">
        <path
            style="display:inline;fill:#a31a1f;fill-opacity:1;stroke-width:0.03607465"
            d="m 22.92317,31.9906 c -0.06948,-0.0081 -0.277422,-0.03235 -0.46209,-0.05384 -2.147889,-0.249888 -4.249982,-1.419727 -5.59965,-3.116269 -0.961167,-1.208194 -1.554689,-2.572853 -1.795388,-4.128058 -0.08907,-0.575498 -0.08782,-1.835731 0.0024,-2.415668 0.223761,-1.438345 0.765805,-2.731082 1.632716,-3.893914 0.353204,-0.473771 1.18254,-1.30549 1.649602,-1.654344 0.947391,-0.707615 1.928391,-1.18098 3.033216,-1.463629 0.649731,-0.166221 1.126538,-0.233843 1.827948,-0.259242 1.94015,-0.07026 3.814111,0.517516 5.397189,1.692835 0.484944,0.360035 1.31879,1.186156 1.663737,1.648325 0.890877,1.193617 1.438199,2.499896 1.661736,3.966023 0.07887,0.517263 0.08854,1.773309 0.01737,2.253423 -0.23912,1.612873 -0.846098,3.039393 -1.810255,4.254461 -0.293648,0.370069 -0.946591,1.022292 -1.317069,1.315618 -1.186276,0.939234 -2.594384,1.549011 -4.122093,1.785059 -0.343493,0.05308 -1.524586,0.09902 -1.779366,0.06922 z"
            id="path85" />
    </g>
    <metadata id="metadata8">
        <rdf:RDF>
            <cc:Work rdf:about="">
                <dc:format>image/svg+xml</dc:format>
                <dc:title />
                <dc:type rdf:resource="http://purl.org/dc/dcmitype/StillImage" />
            </cc:Work>
        </rdf:RDF>
    </metadata>
</svg>
