<?xml version="1.0" encoding="UTF-8" standalone="no"?>
<!-- Created with Inkscape (http://www.inkscape.org/) -->

<svg
   width="200"
   height="248.14609"
   viewBox="0 0 52.916662 65.655319"
   version="1.1"
   id="svg1"
   inkscape:version="1.3.2 (091e20e, 2023-11-25, custom)"
   sodipodi:docname="sticker_final.svg"
   xml:space="preserve"
   xmlns:inkscape="http://www.inkscape.org/namespaces/inkscape"
   xmlns:sodipodi="http://sodipodi.sourceforge.net/DTD/sodipodi-0.dtd"
   xmlns:xlink="http://www.w3.org/1999/xlink"
   xmlns="http://www.w3.org/2000/svg"
   xmlns:svg="http://www.w3.org/2000/svg"><sodipodi:namedview
     id="namedview1"
     pagecolor="#959595"
     bordercolor="#000000"
     borderopacity="0.25"
     inkscape:showpageshadow="2"
     inkscape:pageopacity="0.0"
     inkscape:pagecheckerboard="0"
     inkscape:deskcolor="#959595"
     inkscape:document-units="px"
     showborder="false"
     inkscape:zoom="2.6580254"
     inkscape:cx="108.53922"
     inkscape:cy="117.56848"
     inkscape:window-width="1440"
     inkscape:window-height="821"
     inkscape:window-x="-7"
     inkscape:window-y="-7"
     inkscape:window-maximized="1"
     inkscape:current-layer="layer1"
     showguides="true"
     inkscape:export-bgcolor="#ffffff00" /><defs
     id="defs1"><linearGradient
       inkscape:collect="always"
       id="linearGradient42"><stop
         style="stop-color:#ff6d00;stop-opacity:1;"
         offset="0"
         id="stop41" /><stop
         style="stop-color:#ffa243;stop-opacity:1;"
         offset="1"
         id="stop42" /></linearGradient><linearGradient
       inkscape:collect="always"
       xlink:href="#linearGradient42"
       id="linearGradient51"
       gradientUnits="userSpaceOnUse"
       gradientTransform="matrix(0.20211806,0,0,0.20211806,83.711421,71.155904)"
       x1="62.43222"
       y1="35.349697"
       x2="9.7942638"
       y2="93.02298" /></defs><g
     inkscape:label="Layer 1"
     inkscape:groupmode="layer"
     id="layer1"
     transform="translate(405.98929,0.98619593)"><g
       id="g3"
       transform="matrix(0.19999824,0,0,0.19999824,-324.79215,-0.78895848)"><path
         id="path4"
         style="fill:#030527;fill-opacity:1;stroke:#ffffff;stroke-width:8.91788;stroke-dasharray:none;paint-order:markers stroke fill"
         d="m -395.58387,3.4727441 h 243.7748 a 5.9464834,5.9495786 0 0 1 5.94649,5.949558 V 255.94759 a 9.5116329,9.5165838 0 0 1 -5.34577,8.5553 l -117.14229,57.09908 a 12.20594,12.212293 0 0 1 -10.69171,0 l -117.14221,-57.09908 a 9.5116329,9.5165838 0 0 1 -5.34579,-8.5553 V 9.4223021 a 5.9464834,5.9495786 0 0 1 5.94648,-5.949558 z"
         sodipodi:nodetypes="cccccc"
         inkscape:export-filename="Draft 2.png"
         inkscape:export-xdpi="96"
         inkscape:export-ydpi="96" /><g
         id="g2"><path
           id="path5"
           style="fill:#6c8fbe;fill-opacity:1;stroke:none;stroke-width:0.524584;paint-order:markers stroke fill"
           d="m -395.58387,3.4727441 h 243.7748 a 5.9464834,5.9495786 0 0 1 5.94649,5.949558 V 255.94759 a 9.5116329,9.5165838 0 0 1 -5.34577,8.5553 l -117.14229,57.09908 a 12.20594,12.212293 0 0 1 -10.69171,0 l -117.14221,-57.09908 a 9.5116329,9.5165838 0 0 1 -5.34579,-8.5553 V 9.4223021 a 5.9464834,5.9495786 0 0 1 5.94648,-5.949558 z"
           sodipodi:nodetypes="cccccc" /><path
           d="m -390.98213,9.4996368 c -3.1609,-5.224e-4 -5.72345,2.5633622 -5.72293,5.7259122 V 252.44382 c -6.2e-4,3.50318 1.9964,6.69974 5.14411,8.23399 l 62.47355,30.44966 c 17.89204,8.72059 35.49066,-18.1052 55.39278,-18.1052 19.90212,0 37.50096,26.8263 55.39275,18.1052 l 62.46924,-30.44966 c 3.1477,-1.53426 5.14466,-4.73082 5.14407,-8.23399 V 15.225549 c 5e-4,-3.162533 -2.56197,-5.7264177 -5.72289,-5.7259122 z"
           style="fill:#030627;stroke-width:0.504794;paint-order:markers stroke fill"
           id="path56"
           sodipodi:nodetypes="ccccsssccccc" /></g><g
         id="g1"><path
           style="font-style:italic;font-weight:900;font-size:31.0968px;line-height:1;font-family:Inter;-inkscape-font-specification:'Inter Heavy Italic';text-align:center;letter-spacing:0px;text-anchor:middle;fill:#ff6d00;stroke-width:0.856509;stroke-linecap:round"
           d="m -373.77231,233.50481 q -2.79385,0 -4.94998,-1.07807 -2.15612,-1.09324 -3.38603,-3.17345 -1.21472,-2.09539 -1.21472,-5.117 0,-2.83941 0.89586,-5.34477 0.89585,-2.52054 2.56609,-4.43372 1.68543,-1.91318 4.03894,-2.99124 2.35352,-1.09325 5.26885,-1.09325 2.77866,0 4.91961,1.07806 2.15612,1.07807 3.38602,3.17346 1.22991,2.09539 1.22991,5.13218 0,2.83941 -0.91104,5.34476 -0.89586,2.50536 -2.58128,4.41854 -1.67024,1.91319 -4.02375,3.00643 -2.33834,1.07807 -5.23848,1.07807 z m 0.25813,-5.34477 q 1.65505,0 2.8394,-0.77438 1.18435,-0.78957 1.94355,-2.06502 0.7592,-1.29064 1.10843,-2.79385 0.36442,-1.50322 0.36442,-2.93051 0,-3.97821 -3.55305,-3.97821 -1.65506,0 -2.85459,0.78957 -1.18435,0.78957 -1.94355,2.08021 -0.7592,1.27545 -1.12362,2.77866 -0.34923,1.48803 -0.34923,2.91533 0,3.9782 3.56824,3.9782 z m 12.99749,5.04109 3.75044,-22.62414 h 9.74812 q 2.52054,0 4.23633,1.00214 1.73098,0.98696 2.49018,2.79386 0.75919,1.80689 0.34923,4.22114 -0.39479,2.42944 -1.77653,4.20597 -1.36656,1.76134 -3.47713,2.73311 -2.09539,0.9566 -4.67667,0.9566 h -3.40121 l -1.10843,6.71132 z m 8.03233,-11.4791 h 2.15612 q 1.62469,0 2.67238,-0.8503 1.06288,-0.8503 1.30583,-2.2776 0.25812,-1.47284 -0.53144,-2.27759 -0.78957,-0.81994 -2.41426,-0.81994 h -2.15612 z m 12.35976,11.4791 3.75044,-22.62414 h 16.3076 l -0.81993,4.94998 h -10.17327 l -0.63773,3.82636 h 9.32297 l -0.80475,4.82851 h -9.32297 l -0.6681,4.06931 h 10.11254 l -0.81994,4.94998 z m 19.34439,0 3.75045,-22.62414 h 6.68095 l 3.91747,8.88263 q 0.62254,1.39693 1.09325,2.82422 0.48588,1.41211 0.86548,3.32529 0.16703,-1.73097 0.36442,-3.61378 0.19739,-1.88282 0.39478,-3.12791 l 1.38175,-8.29045 h 6.31653 l -3.75044,22.62414 h -6.68095 l -3.65934,-8.26009 q -0.7592,-1.73098 -1.26028,-3.20382 -0.48588,-1.47285 -0.98695,-3.37085 -0.18221,1.94355 -0.3796,3.7049 -0.18221,1.74615 -0.36442,2.86977 l -1.36656,8.26009 z m 26.25312,-17.67416 0.81993,-4.94998 h 19.64808 l -0.81994,4.94998 h -6.75687 l -2.93051,17.67416 h -6.13433 l 2.93051,-17.67416 z m 19.02553,17.67416 3.75044,-22.62414 h 9.74812 q 2.52054,0 4.25151,0.92622 1.74616,0.91104 2.50536,2.64202 0.77438,1.71579 0.3796,4.11486 -0.39478,2.35351 -1.68542,3.99338 -1.29064,1.63987 -3.24938,2.50536 l 3.21901,8.4423 h -6.68095 l -2.7483,-7.47052 h -2.12576 l -1.22991,7.47052 z m 8.15379,-12.2383 h 2.15613 q 1.62469,0 2.64201,-0.62254 1.03251,-0.62254 1.27546,-2.0802 0.24294,-1.44248 -0.57699,-2.09539 -0.80475,-0.6681 -2.42944,-0.6681 h -2.15613 z m 11.8587,12.2383 11.0843,-22.62414 h 8.38156 l 3.85674,22.62414 h -6.71132 l -0.577,-4.34262 h -6.96945 l -1.95873,4.34262 z m 11.12986,-8.92819 h 4.29706 q -0.27331,-2.0802 -0.4707,-4.2667 -0.18221,-2.18649 -0.33405,-4.40335 -0.83512,2.21686 -1.7006,4.40335 -0.85031,2.1865 -1.79171,4.2667 z m 23.62627,9.23187 q -2.79385,0 -4.93479,-1.07807 -2.12576,-1.07806 -3.32529,-3.15827 -1.19954,-2.0802 -1.19954,-5.08663 0,-2.83941 0.88067,-5.34476 0.89586,-2.52054 2.5661,-4.44891 1.67023,-1.92837 4.00857,-3.02161 2.33833,-1.09325 5.22329,-1.09325 2.8394,0 4.96516,0.98696 2.12576,0.98696 3.23419,2.90014 1.12362,1.91318 0.95659,4.67667 h -6.22543 q 0.0607,-1.44248 -0.68328,-2.32315 -0.74402,-0.89586 -2.32315,-0.89586 -1.62469,0 -2.82422,0.77439 -1.19954,0.77438 -1.9891,2.04983 -0.77439,1.26027 -1.16917,2.76349 -0.3796,1.50321 -0.3796,2.96088 0,3.99338 3.62897,3.99338 1.8069,0 3.05198,-0.88067 1.24509,-0.89585 1.71579,-2.33833 h 6.22544 q -0.34923,1.44248 -1.27546,2.94569 -0.91104,1.50322 -2.35352,2.77867 -1.44247,1.27546 -3.40121,2.06502 -1.94355,0.77439 -4.37299,0.77439 z m 12.46606,-0.30368 3.75045,-22.62414 h 6.31653 l -0.80475,4.85887 -0.88067,4.76778 q 1.22991,-1.60951 3.29493,-3.81118 l 5.46623,-5.81547 h 7.63755 l -9.52036,9.74812 6.19506,12.87602 h -6.86316 l -3.94783,-9.09521 0.0455,-0.0455 -3.40121,3.27974 -0.97178,5.86102 z m 32.82778,0.27331 q -2.94569,0 -5.08663,-0.86549 -2.14095,-0.88067 -3.14309,-2.70275 -1.00214,-1.82208 -0.54662,-4.66148 h 5.83065 q -0.18221,1.56395 0.68328,2.38388 0.86548,0.80476 2.64201,0.80476 1.47285,0 2.32315,-0.53144 0.86549,-0.54663 1.00214,-1.38175 0.12147,-0.7592 -0.56181,-1.27545 -0.66809,-0.51626 -2.47498,-0.91104 l -2.20168,-0.48589 q -2.88496,-0.63773 -4.35781,-2.17131 -1.45766,-1.54876 -1.01732,-4.20596 0.34923,-2.15613 1.68542,-3.76563 1.35137,-1.62469 3.46195,-2.52054 2.12576,-0.91104 4.81332,-0.91104 2.7483,0 4.67667,0.92622 1.94355,0.91104 2.8394,2.58128 0.91104,1.65505 0.56181,3.87192 h -5.89139 q 0.10629,-1.10843 -0.53143,-1.71579 -0.63773,-0.62255 -2.12576,-0.62255 -1.4273,0 -2.17131,0.48589 -0.72883,0.48589 -0.85031,1.24509 -0.13665,0.80475 0.50108,1.30582 0.63772,0.50107 2.18649,0.8503 l 1.77653,0.39479 q 3.62897,0.80475 4.99553,2.58127 1.36656,1.76135 0.9414,4.34262 -0.5618,3.35566 -3.11271,5.16256 -2.55091,1.79171 -6.84798,1.79171 z"
           id="text13"
           transform="scale(0.99973985,1.0002602)"
           aria-label="OPENTRACKS" /><path
           d="m -388.56764,26.927853 1.53124,-9.237054 h 3.60183 q 1.04769,0 1.71722,0.402958 0.67573,0.39676 0.94851,1.097288 0.27277,0.700528 0.11778,1.611835 -0.14878,0.917506 -0.65713,1.618034 -0.50835,0.700529 -1.32666,1.097288 -0.81212,0.39056 -1.87221,0.39056 h -1.66763 l -0.50215,3.019091 z m 2.64712,-4.544135 h 1.36387 q 0.87411,0 1.35766,-0.446354 0.48355,-0.446354 0.60133,-1.128285 0.11159,-0.694329 -0.23557,-1.122085 -0.34097,-0.433955 -1.21508,-0.433955 h -1.35766 z m 5.57943,4.544135 1.53125,-9.237054 h 3.60183 q 1.58084,0 2.30616,0.824515 0.72533,0.824516 0.49595,2.182177 -0.15498,0.942303 -0.68813,1.618034 -0.53314,0.669531 -1.38246,1.010497 l 1.37006,3.601831 h -2.09538 l -1.21508,-3.298063 h -1.48785 l -0.54554,3.298063 z m 2.69053,-4.829306 h 1.36386 q 1.69862,0 1.9342,-1.401056 0.23558,-1.444452 -1.46925,-1.444452 h -1.35766 z m 9.06967,-4.407748 -1.53124,9.237054 h -1.89081 l 1.53124,-9.237054 z m 2.84551,9.237054 -1.70483,-9.237054 h 2.10159 l 0.73772,4.457343 q 0.11159,0.731525 0.19838,1.531243 0.0868,0.799718 0.16738,1.723424 0.38437,-0.923706 0.73153,-1.735822 0.34716,-0.812117 0.68193,-1.518845 l 2.16358,-4.457343 h 2.08918 l -4.69292,9.237054 z m 5.23846,0 4.68672,-9.237054 h 2.47975 l 1.70482,9.237054 h -2.02719 l -0.35336,-2.144981 h -3.28567 l -1.04149,2.144981 z m 3.9304,-3.626629 h 2.31236 l -0.13638,-0.830715 q -0.0992,-0.68193 -0.19218,-1.512645 -0.0868,-0.830715 -0.17359,-1.785417 -0.37816,0.936104 -0.73152,1.766819 -0.34717,0.824516 -0.67573,1.531243 z m 9.67101,3.750616 q -1.10349,0 -1.93421,-0.440155 -0.82451,-0.446354 -1.28946,-1.283269 -0.45876,-0.843113 -0.45876,-2.04579 0,-1.128284 0.35337,-2.15118 0.35336,-1.029094 1.01049,-1.828812 0.66334,-0.805918 1.59324,-1.27087 0.9361,-0.464953 2.08919,-0.464953 1.06629,0 1.87221,0.384361 0.81211,0.384361 1.25227,1.115886 0.44635,0.731525 0.40915,1.779218 h -1.9156 q 0,-0.750124 -0.44635,-1.17168 -0.44636,-0.427757 -1.20888,-0.427757 -0.75632,0 -1.33906,0.353364 -0.57654,0.353364 -0.9733,0.942304 -0.39056,0.588939 -0.59514,1.301866 -0.19838,0.706728 -0.19838,1.425854 0,1.041494 0.50835,1.574639 0.50834,0.526946 1.37626,0.526946 0.83071,0 1.48784,-0.421557 0.65714,-0.427756 0.91751,-1.184079 h 1.9156 q -0.24797,0.861712 -0.86171,1.611835 -0.61374,0.743924 -1.52504,1.208877 -0.90511,0.464952 -2.03959,0.464952 z m 8.15836,-0.123987 0.57034,-3.471645 -2.46114,-5.765409 h 2.12018 l 1.08489,2.876505 q 0.12399,0.316168 0.21078,0.626136 0.093,0.303769 0.17358,0.663332 0.19838,-0.365762 0.38436,-0.669531 0.19218,-0.309969 0.40916,-0.619937 l 1.98999,-2.876505 h 2.29997 l -4.32096,5.765409 -0.57654,3.471645 z m 9.39824,0 1.53124,-9.237054 h 6.07538 l -0.26037,1.568439 h -4.18457 l -0.42776,2.585135 h 3.77541 l -0.25417,1.537443 h -3.77542 l -0.58893,3.546037 z m 7.45164,0 1.53124,-9.237054 h 3.60183 q 1.58084,0 2.30617,0.824515 0.72532,0.824516 0.49595,2.182177 -0.15499,0.942303 -0.68813,1.618034 -0.53315,0.669531 -1.38246,1.010497 l 1.37006,3.601831 h -2.09539 l -1.21507,-3.298063 h -1.48785 l -0.54554,3.298063 z m 2.69052,-4.829306 h 1.36386 q 1.69863,0 1.93421,-1.401056 0.23557,-1.444452 -1.46925,-1.444452 h -1.35766 z m 9.06967,-4.407748 -1.53124,9.237054 h -1.89081 l 1.53125,-9.237054 z m 0.14259,9.237054 1.53124,-9.237054 h 6.18077 l -0.26037,1.568439 h -4.28997 l -0.36576,2.231772 h 3.9614 l -0.26038,1.537442 h -3.96139 l -0.38436,2.330961 h 4.30236 l -0.26038,1.56844 z m 7.7802,0 1.53125,-9.237054 h 2.09538 l 2.13878,4.674321 q 0.19218,0.433956 0.39676,0.998098 0.21078,0.557943 0.39676,1.314265 0.0682,-0.688129 0.14879,-1.382458 0.0806,-0.700529 0.16118,-1.17168 l 0.73152,-4.432546 h 1.93421 l -1.53125,9.237054 h -2.09538 l -1.9466,-4.240366 q -0.18598,-0.409158 -0.34097,-0.799718 -0.15498,-0.39056 -0.30997,-0.849313 -0.15498,-0.458753 -0.35336,-1.060092 -0.093,0.88031 -0.17358,1.587038 -0.0806,0.700528 -0.14879,1.115886 l -0.70052,4.246565 z m 13.17985,0 h -3.50264 l 1.53124,-9.237054 h 3.15548 q 1.39486,0 2.33096,0.557943 0.94231,0.551743 1.33907,1.587037 0.39675,1.035294 0.16118,2.473547 -0.35956,2.169777 -1.64283,3.397252 -1.27707,1.221275 -3.37246,1.221275 z m -1.33906,-1.630433 h 1.26467 q 1.33906,0 2.14498,-0.719127 0.80592,-0.725325 1.06009,-2.275167 0.25418,-1.549841 -0.30377,-2.262768 -0.55174,-0.719126 -1.87221,-0.719126 h -1.30186 z m 6.99908,1.630433 1.53124,-9.237054 h 1.89081 l -1.27087,7.668614 h 3.97999 l -0.25417,1.56844 z m 8.96428,0 0.57034,-3.471645 -2.46114,-5.765409 h 2.12018 l 1.08489,2.876505 q 0.12399,0.316168 0.21078,0.626136 0.093,0.303769 0.17358,0.663332 0.19838,-0.365762 0.38436,-0.669531 0.19218,-0.309969 0.40916,-0.619937 l 1.98999,-2.876505 h 2.29997 l -4.32096,5.765409 -0.57654,3.471645 z m 12.23135,0.136386 q -0.9857,0 -1.64283,-0.359564 -0.65094,-0.365762 -0.93611,-0.9733 -0.28517,-0.613737 -0.16738,-1.357661 0.13639,-0.793518 0.68193,-1.314265 0.55174,-0.526946 1.40106,-1.07249 l 0.0248,-0.0124 q -0.29757,-0.471152 -0.47115,-0.998098 -0.17358,-0.533145 -0.0682,-1.177879 0.10539,-0.632335 0.48355,-1.134484 0.37816,-0.502149 0.9609,-0.793519 0.58894,-0.29137 1.32047,-0.29137 0.76252,0 1.27087,0.316168 0.50834,0.309968 0.72532,0.836914 0.21698,0.520747 0.11159,1.146883 -0.10539,0.613737 -0.48975,1.115885 -0.38436,0.502149 -1.0167,0.905108 l -0.69432,0.446354 1.23367,1.717224 q 0.26657,-0.347164 0.44635,-0.756323 0.18598,-0.409158 0.26038,-0.855512 h 1.56224 q -0.15499,0.9795 -0.50215,1.717224 -0.34717,0.737725 -0.79972,1.239873 l 1.09109,1.518845 h -1.92181 l -0.43395,-0.601339 q -0.57034,0.39056 -1.22128,0.564142 -0.64473,0.173583 -1.20887,0.173584 z m 1.57464,-1.946601 -1.37626,-1.934202 -0.13019,0.08059 q -0.51455,0.328566 -0.75632,0.632335 -0.23558,0.29757 -0.27277,0.663332 -0.0496,0.464953 0.23557,0.737725 0.28517,0.266572 0.82452,0.266572 0.72532,0 1.47545,-0.446354 z m -0.88651,-3.930397 0.61373,-0.365763 q 0.34717,-0.204579 0.60754,-0.446354 0.26038,-0.247975 0.30377,-0.595139 0.031,-0.309968 -0.17358,-0.502149 -0.20458,-0.198379 -0.58894,-0.198379 -0.43396,0 -0.75632,0.260373 -0.32237,0.260373 -0.35957,0.719126 -0.031,0.254174 0.062,0.526946 0.093,0.266573 0.29137,0.601339 z m 12.40493,5.864599 q -1.09729,0 -1.9342,-0.440155 -0.83072,-0.446354 -1.30187,-1.289468 -0.46495,-0.849313 -0.46495,-2.04579 0,-1.134484 0.35336,-2.157379 0.35957,-1.029095 1.0229,-1.828813 0.66333,-0.799718 1.59943,-1.258471 0.93611,-0.464953 2.09539,-0.464953 1.09109,0 1.9218,0.446355 0.83692,0.440155 1.30187,1.283268 0.47115,0.843114 0.47115,2.045791 0,1.134484 -0.35956,2.163578 -0.35337,1.029095 -1.0167,1.828813 -0.66333,0.793519 -1.59943,1.258471 -0.92991,0.458753 -2.08919,0.458753 z m 0.0806,-1.680028 q 0.76252,0 1.33906,-0.353364 0.57655,-0.359563 0.96091,-0.948503 0.39056,-0.588939 0.58274,-1.301866 0.19838,-0.712927 0.19838,-1.425854 0,-1.029095 -0.50215,-1.56224 -0.49595,-0.533146 -1.36386,-0.533146 -0.76872,0 -1.34526,0.359564 -0.57655,0.353363 -0.96711,0.942303 -0.39056,0.58894 -0.58894,1.301867 -0.19218,0.712927 -0.19218,1.419654 0,1.035294 0.50215,1.56844 0.50215,0.533145 1.37626,0.533145 z m 5.56704,1.556041 1.53124,-9.237054 h 3.60183 q 1.04769,0 1.71723,0.402958 0.67573,0.39676 0.9485,1.097288 0.27277,0.700528 0.11779,1.611835 -0.14879,0.917506 -0.65714,1.618034 -0.50834,0.700529 -1.32666,1.097288 -0.81212,0.39056 -1.87221,0.39056 h -1.66763 l -0.50215,3.019091 z m 2.64713,-4.544135 h 1.36386 q 0.87411,0 1.35766,-0.446354 0.48355,-0.446354 0.60134,-1.128285 0.11158,-0.694329 -0.23558,-1.122085 -0.34096,-0.433955 -1.21508,-0.433955 h -1.35766 z m 5.57941,4.544135 1.53125,-9.237054 h 6.18076 l -0.26037,1.568439 h -4.28996 l -0.36576,2.231772 h 3.96139 l -0.26037,1.537442 h -3.96139 l -0.38437,2.330961 h 4.30236 l -0.26037,1.56844 z m 7.78022,0 1.53124,-9.237054 h 2.09539 l 2.13878,4.674321 q 0.19218,0.433956 0.39676,0.998098 0.21077,0.557943 0.39676,1.314265 0.0682,-0.688129 0.14878,-1.382458 0.0806,-0.700529 0.16118,-1.17168 l 0.73153,-4.432546 h 1.9342 l -1.53124,9.237054 h -2.09539 l -1.9466,-4.240366 q -0.18598,-0.409158 -0.34096,-0.799718 -0.15499,-0.39056 -0.30997,-0.849313 -0.15499,-0.458753 -0.35337,-1.060092 -0.093,0.88031 -0.17358,1.587038 -0.0806,0.700528 -0.14878,1.115886 l -0.70053,4.246565 z m 14.81027,-5.356252 -0.24797,1.487848 h -4.20317 l 0.24797,-1.487848 z m 4.30236,5.492638 q -1.10969,0 -1.9094,-0.340965 -0.79352,-0.340965 -1.17788,-1.010497 -0.37816,-0.669531 -0.24178,-1.649031 h 1.84121 q -0.0682,0.700528 0.38436,1.053892 0.45256,0.347164 1.22128,0.347164 0.75632,0 1.27087,-0.322366 0.51455,-0.328567 0.60134,-0.855513 0.0806,-0.471152 -0.29137,-0.725326 -0.37197,-0.260373 -1.10349,-0.446354 l -0.9795,-0.254174 q -1.09109,-0.272772 -1.67383,-0.87411 -0.57654,-0.601339 -0.40916,-1.630433 0.13019,-0.836915 0.65094,-1.46305 0.52694,-0.626136 1.33906,-0.973301 0.81212,-0.353364 1.81641,-0.353364 1.0167,0 1.75442,0.353364 0.73773,0.347165 1.09109,0.967101 0.35956,0.619937 0.24178,1.438253 h -1.82262 q 0.0372,-0.551744 -0.33476,-0.855512 -0.37196,-0.309969 -1.08489,-0.309969 -0.72533,0 -1.17168,0.303769 -0.44016,0.29757 -0.52075,0.762522 -0.062,0.340965 0.10539,0.564142 0.17358,0.223177 0.48355,0.365763 0.31617,0.142585 0.70053,0.235576 l 0.79352,0.204579 q 0.74392,0.179781 1.31426,0.514547 0.57035,0.334766 0.84932,0.87411 0.28517,0.533146 0.15498,1.314266 -0.21078,1.258471 -1.21507,2.014793 -0.9981,0.750124 -2.67813,0.750124 z m 8.95809,-0.0124 q -1.09728,0 -1.9342,-0.440155 -0.83071,-0.446354 -1.30187,-1.289468 -0.46495,-0.849313 -0.46495,-2.04579 0,-1.134484 0.35337,-2.157379 0.35956,-1.029095 1.02289,-1.828813 0.66333,-0.799718 1.59944,-1.258471 0.9361,-0.464953 2.09538,-0.464953 1.09109,0 1.92181,0.446355 0.83691,0.440155 1.30186,1.283268 0.47115,0.843114 0.47115,2.045791 0,1.134484 -0.35956,2.163578 -0.35336,1.029095 -1.01669,1.828813 -0.66334,0.793519 -1.59944,1.258471 -0.92991,0.458753 -2.08919,0.458753 z m 0.0806,-1.680028 q 0.76253,0 1.33907,-0.353364 0.57654,-0.359563 0.9609,-0.948503 0.39056,-0.588939 0.58274,-1.301866 0.19838,-0.712927 0.19838,-1.425854 0,-1.029095 -0.50215,-1.56224 -0.49595,-0.533146 -1.36386,-0.533146 -0.76872,0 -1.34526,0.359564 -0.57654,0.353363 -0.9671,0.942303 -0.39056,0.58894 -0.58894,1.301867 -0.19218,0.712927 -0.19218,1.419654 0,1.035294 0.50215,1.56844 0.50214,0.533145 1.37625,0.533145 z m 9.45403,1.686227 q -1.17168,0 -1.9838,-0.440155 -0.80592,-0.440155 -1.16548,-1.208876 -0.35956,-0.77492 -0.19218,-1.785417 l 0.9857,-5.932792 h 1.8908 l -0.9733,5.901795 q -0.13638,0.812117 0.27898,1.301867 0.41535,0.48975 1.23987,0.48975 0.60134,0 1.09729,-0.254174 0.49595,-0.254174 0.81831,-0.68193 0.32857,-0.433956 0.41536,-0.9795 l 0.9609,-5.777808 h 1.89081 l -0.9981,6.056779 q -0.16738,1.010497 -0.75632,1.754421 -0.58274,0.743923 -1.48785,1.153082 -0.89891,0.402958 -2.02099,0.402958 z m 5.40584,-0.130186 1.53124,-9.237054 h 3.60184 q 1.58083,0 2.30616,0.824515 0.72533,0.824516 0.49595,2.182177 -0.15499,0.942303 -0.68813,1.618034 -0.53315,0.669531 -1.38246,1.010497 l 1.37006,3.601831 h -2.09538 l -1.21508,-3.298063 h -1.48785 l -0.54554,3.298063 z m 2.69053,-4.829306 h 1.36386 q 1.69862,0 1.9342,-1.401056 0.23557,-1.444452 -1.46925,-1.444452 h -1.35766 z m 9.7702,4.953293 q -1.10349,0 -1.9342,-0.440155 -0.82452,-0.446354 -1.28947,-1.283269 -0.45875,-0.843113 -0.45875,-2.04579 0,-1.128284 0.35336,-2.15118 0.35336,-1.029094 1.0105,-1.828812 0.66333,-0.805918 1.59323,-1.27087 0.93611,-0.464953 2.08919,-0.464953 1.06629,0 1.87221,0.384361 0.81211,0.384361 1.25227,1.115886 0.44635,0.731525 0.40916,1.779218 h -1.91561 q 0,-0.750124 -0.44635,-1.17168 -0.44635,-0.427757 -1.20888,-0.427757 -0.75632,0 -1.33906,0.353364 -0.57654,0.353364 -0.9733,0.942304 -0.39056,0.588939 -0.59514,1.301866 -0.19838,0.706728 -0.19838,1.425854 0,1.041494 0.50835,1.574639 0.50835,0.526946 1.37626,0.526946 0.83071,0 1.48785,-0.421557 0.65713,-0.427756 0.9175,-1.184079 h 1.91561 q -0.24798,0.861712 -0.86172,1.611835 -0.61373,0.743924 -1.52504,1.208877 -0.90511,0.464952 -2.03959,0.464952 z m 5.26947,-0.123987 1.53124,-9.237054 h 6.18077 l -0.26038,1.568439 h -4.28996 l -0.36576,2.231772 h 3.96139 l -0.26037,1.537442 h -3.96139 l -0.38436,2.330961 h 4.30235 l -0.26037,1.56844 z"
           id="text14"
           style="font-style:italic;font-weight:bold;font-size:12.6963px;line-height:1;font-family:Inter;-inkscape-font-specification:'Inter Bold Italic';text-align:center;letter-spacing:0px;text-anchor:middle;fill:#ffffff;stroke-width:95.223;paint-order:markers stroke fill"
           transform="scale(0.99973985,1.0002602)"
           aria-label="PRIVACY FRIENDLY &amp; OPEN-SOURCE" /><path
           style="font-style:italic;font-weight:bold;font-size:16.1834px;line-height:1;font-family:Inter;-inkscape-font-specification:'Inter Bold Italic';text-align:center;letter-spacing:0px;text-anchor:middle;fill:#ffffff;stroke-width:121.375;paint-order:markers stroke fill"
           d="m -337.08706,252.4931 q -1.41447,0 -2.43383,-0.43461 -1.01147,-0.43461 -1.50139,-1.28803 -0.48203,-0.85342 -0.30818,-2.10195 h 2.34691 q -0.0869,0.89293 0.48992,1.34335 0.57685,0.44252 1.55671,0.44252 0.96405,0 1.61992,-0.41091 0.65587,-0.41881 0.7665,-1.09048 0.10272,-0.60056 -0.3714,-0.92454 -0.47412,-0.33189 -1.40656,-0.56895 l -1.24853,-0.32399 q -1.39076,-0.34769 -2.13355,-1.11418 -0.73489,-0.7665 -0.52154,-2.07824 0.16595,-1.06678 0.82972,-1.86489 0.67167,-0.7981 1.70684,-1.24062 1.03517,-0.45042 2.3153,-0.45042 1.29594,0 2.23628,0.45042 0.94035,0.44252 1.39076,1.23272 0.45832,0.79021 0.30818,1.83328 h -2.3232 q 0.0474,-0.70329 -0.42671,-1.09049 -0.47412,-0.3951 -1.38286,-0.3951 -0.92454,0 -1.49349,0.3872 -0.56104,0.3793 -0.66377,0.97195 -0.079,0.43462 0.13434,0.71909 0.22125,0.28447 0.61636,0.46622 0.403,0.18175 0.89293,0.30028 l 1.01146,0.26077 q 0.94825,0.22916 1.67523,0.65587 0.72699,0.42671 1.08259,1.11419 0.36349,0.67957 0.19755,1.67523 -0.26867,1.60412 -1.54881,2.56817 -1.27223,0.95614 -3.41368,0.95614 z m 6.13989,-0.17384 1.95181,-11.77406 h 4.59109 q 1.33545,0 2.18887,0.51364 0.86132,0.50573 1.20901,1.39866 0.34769,0.89293 0.15014,2.05453 -0.18965,1.16951 -0.83762,2.06244 -0.64796,0.89293 -1.69104,1.39866 -1.03516,0.49783 -2.38641,0.49783 h -2.12566 l -0.64006,3.8483 z m 3.37418,-5.7922 h 1.73845 q 1.11419,0 1.73055,-0.56895 0.61636,-0.56895 0.7665,-1.43817 0.14223,-0.88503 -0.30028,-1.43028 -0.43461,-0.55314 -1.5488,-0.55314 h -1.73055 z m 12.39041,5.95024 q -1.39866,0 -2.46544,-0.56104 -1.05887,-0.56895 -1.65943,-1.64363 -0.59265,-1.08258 -0.59265,-2.60768 0,-1.44607 0.45042,-2.74991 0.45831,-1.31174 1.30383,-2.33111 0.84552,-1.01936 2.03873,-1.60411 1.19321,-0.59266 2.6709,-0.59266 1.39076,0 2.44963,0.56895 1.06678,0.56105 1.65943,1.63573 0.60056,1.07467 0.60056,2.60767 0,1.44608 -0.45832,2.75782 -0.45042,1.31174 -1.29594,2.3311 -0.84552,1.01147 -2.03873,1.60412 -1.1853,0.58475 -2.66299,0.58475 z m 0.10273,-2.14146 q 0.97195,0 1.70684,-0.45041 0.73489,-0.45832 1.22482,-1.20902 0.49783,-0.75069 0.74279,-1.65943 0.25287,-0.90873 0.25287,-1.81747 0,-1.31174 -0.64007,-1.99131 -0.63216,-0.67958 -1.73845,-0.67958 -0.97985,0 -1.71474,0.45832 -0.73489,0.45042 -1.23272,1.20111 -0.49783,0.75069 -0.7507,1.65943 -0.24496,0.90874 -0.24496,1.80957 0,1.31964 0.64006,1.99922 0.64007,0.67957 1.75426,0.67957 z m 7.09604,1.98342 1.95181,-11.77406 h 4.59109 q 2.01502,0 2.93956,1.05098 0.92454,1.05097 0.63217,2.78152 -0.19755,1.20111 -0.87713,2.06243 -0.67958,0.85343 -1.76216,1.28804 l 1.74636,4.59109 h -2.6709 l -1.5488,-4.20389 h -1.89649 l -0.69538,4.20389 z m 3.42949,-6.1557 h 1.73845 q 2.16517,0 2.46544,-1.78586 0.30028,-1.84118 -1.87278,-1.84118 h -1.73055 z m 8.35247,-3.61914 0.33189,-1.99922 h 9.61679 l -0.33188,1.99922 h -3.59544 l -1.61992,9.77484 h -2.41802 l 1.61992,-9.77484 z m 14.6425,0 0.33188,-1.99922 h 9.6168 l -0.33189,1.99922 h -3.59543 l -1.61992,9.77484 h -2.41803 l 1.61992,-9.77484 z m 9.6563,9.77484 1.95181,-11.77406 h 4.59109 q 2.01502,0 2.93956,1.05098 0.92454,1.05097 0.63216,2.78152 -0.19755,1.20111 -0.87712,2.06243 -0.67958,0.85343 -1.76216,1.28804 l 1.74635,4.59109 h -2.67089 l -1.5488,-4.20389 h -1.89649 l -0.69538,4.20389 z m 3.42949,-6.1557 h 1.73845 q 2.16516,0 2.46544,-1.78586 0.30028,-1.84118 -1.87278,-1.84118 h -1.73055 z m 6.51919,6.1557 5.97395,-11.77406 h 3.16082 l 2.17307,11.77406 h -2.58397 l -0.45042,-2.73411 h -4.18809 l -1.32754,2.73411 z m 5.0099,-4.6227 h 2.94747 l -0.17385,-1.05887 q -0.12643,-0.86923 -0.24496,-1.9281 -0.11063,-1.05888 -0.22126,-2.2758 -0.48202,1.19321 -0.93244,2.25209 -0.44252,1.05097 -0.86132,1.95181 z m 12.32721,4.78074 q -1.40657,0 -2.46544,-0.56104 -1.05098,-0.56895 -1.64363,-1.63573 -0.58475,-1.07468 -0.58475,-2.60768 0,-1.43817 0.45041,-2.74201 0.45042,-1.31174 1.28804,-2.3311 0.84552,-1.02727 2.03083,-1.61992 1.19321,-0.59266 2.66299,-0.59266 1.35915,0 2.38642,0.48993 1.03516,0.48993 1.59621,1.42237 0.56895,0.93244 0.52154,2.26789 h -2.44174 q 0,-0.95615 -0.56895,-1.49349 -0.56894,-0.54524 -1.5409,-0.54524 -0.96405,0 -1.70684,0.45042 -0.73489,0.45041 -1.24062,1.20111 -0.49783,0.75069 -0.7586,1.65943 -0.25286,0.90083 -0.25286,1.81747 0,1.32754 0.64797,2.00712 0.64796,0.67167 1.75425,0.67167 1.05888,0 1.89649,-0.53733 0.83762,-0.54525 1.16951,-1.5093 h 2.44173 q -0.31608,1.09839 -1.09839,2.05454 -0.7823,0.94824 -1.9439,1.5409 -1.1537,0.59265 -2.59977,0.59265 z m 6.71674,-0.15804 1.9518,-11.77406 h 2.46544 l -0.53734,3.21614 -0.42671,2.37852 q 0.43461,-0.53734 0.91664,-1.05888 0.48202,-0.52944 1.09838,-1.1537 l 3.4453,-3.38208 h 3.0818 l -5.24696,5.09683 3.42158,6.67723 h -2.69459 l -2.55237,-5.19955 -1.88859,1.77796 -0.56894,3.42159 z m 11.63971,0 1.95181,-11.77406 h 7.87834 l -0.33188,1.99922 h -5.46822 l -0.46622,2.84474 h 5.04941 l -0.33189,1.95971 h -5.04941 l -0.48993,2.97117 h 5.48403 l -0.33189,1.99922 z m 9.91708,0 1.95181,-11.77406 h 4.59109 q 2.01502,0 2.93956,1.05098 0.92454,1.05097 0.63216,2.78152 -0.19755,1.20111 -0.87712,2.06243 -0.67958,0.85343 -1.76216,1.28804 l 1.74635,4.59109 h -2.67089 l -1.5488,-4.20389 h -1.8965 l -0.69538,4.20389 z m 3.42949,-6.1557 h 1.73845 q 2.16516,0 2.46544,-1.78586 0.30028,-1.84118 -1.87279,-1.84118 h -1.73055 z"
           id="text15"
           transform="scale(0.99973985,1.0002602)"
           aria-label="SPORT TRACKER" /></g><g
         id="g64"
         transform="matrix(8.421714,0,0,8.4260976,-1069.0171,-563.39648)"><circle
           style="fill:#6c8fbe;fill-opacity:1;stroke-width:22.8634;stroke-linecap:square;stroke-linejoin:round;paint-order:markers stroke fill"
           id="path54"
           cx="94.436905"
           cy="81.214409"
           r="6.9583354" /><g
           id="g63"><path
             style="fill:url(#linearGradient51);fill-opacity:1;stroke:#030627;stroke-width:1.56104;stroke-linecap:round;stroke-dasharray:none;stroke-opacity:1;paint-order:markers stroke fill"
             d="m 100.59798,73.364446 c 0.1429,-0.488312 -0.0901,-0.662534 -0.51804,-0.38745 l -14.115714,9.077325 c -0.427882,0.275074 -0.362805,0.53116 0.144319,0.568955 l 5.862421,0.437381 c 0.507324,0.03799 1.069412,0.458204 1.249091,0.933986 l 2.078183,5.499236 c 0.179885,0.475782 0.443649,0.465678 0.586543,-0.02245 z"
             id="path13" /><path
             id="path15"
             style="fill:#ffffff;stroke-width:0.776221;paint-order:markers stroke fill"
             inkscape:transform-center-x="1.1533289e-05"
             inkscape:transform-center-y="1.0105876e-05"
             d="m 89.561348,73.641593 c 0,0 -0.599132,-0.0082 -0.790705,0.18273 -0.189113,0.188539 -0.182725,0.78001 -0.182725,0.78001 0,0 0.0064,-0.591471 -0.182734,-0.78001 -0.191564,-0.190995 -0.790705,-0.18273 -0.790705,-0.18273 0,0 0.599141,0.0083 0.790705,-0.182725 0.189105,-0.188549 0.182734,-0.78001 0.182734,-0.78001 0,0 -0.0064,0.591461 0.182725,0.78001 0.191573,0.190994 0.790705,0.182725 0.790705,0.182725 z"
             sodipodi:nodetypes="cacacacac" /><path
             id="path23"
             style="fill:#ffffff;stroke-width:0.637045;paint-order:markers stroke fill"
             inkscape:transform-center-x="-3.187175e-05"
             inkscape:transform-center-y="7.3847719e-06"
             d="m 103.71317,85.643252 c 0,0 -0.49171,-0.0068 -0.64893,0.149972 -0.15521,0.154734 -0.14997,0.640148 -0.14997,0.640148 0,0 0.005,-0.485414 -0.14997,-0.640148 -0.15722,-0.156749 -0.64892,-0.149972 -0.64892,-0.149972 0,0 0.4917,0.0068 0.64892,-0.149967 0.15521,-0.154733 0.14997,-0.640147 0.14997,-0.640147 0,0 -0.005,0.485414 0.14997,0.640147 0.15722,0.15675 0.64893,0.149967 0.64893,0.149967 z"
             sodipodi:nodetypes="cacacacac" /><path
             id="path24"
             style="fill:#ffffff;stroke-width:1.36588;paint-order:markers stroke fill"
             inkscape:transform-center-x="3.6704414e-05"
             inkscape:transform-center-y="-1.6484546e-06"
             d="m 86.433789,86.630732 c 0,0 -1.054273,-0.01454 -1.391372,0.321548 -0.332763,0.331768 -0.321539,1.372535 -0.321539,1.372535 0,0 0.01122,-1.040767 -0.321539,-1.372535 -0.3371,-0.336095 -1.391372,-0.321548 -1.391372,-0.321548 0,0 1.054272,0.01454 1.391372,-0.321545 0.332762,-0.331767 0.321539,-1.372534 0.321539,-1.372534 0,0 -0.01122,1.040767 0.321539,1.372534 0.337099,0.336086 1.391372,0.321545 1.391372,0.321545 z"
             sodipodi:nodetypes="cacacacac" /><path
             id="path25"
             style="fill:#ffffff;stroke-width:0.414199;paint-order:markers stroke fill"
             inkscape:transform-center-x="6.208635e-06"
             inkscape:transform-center-y="2.2264783e-06"
             d="m 104.82459,77.210582 c 0,0 -0.31971,-0.0043 -0.42192,0.09751 -0.10091,0.100609 -0.0975,0.416219 -0.0975,0.416219 0,0 0.003,-0.31561 -0.0975,-0.416219 -0.10223,-0.101915 -0.42194,-0.09751 -0.42194,-0.09751 0,0 0.31971,0.0043 0.42194,-0.09751 0.1009,-0.100609 0.0975,-0.416214 0.0975,-0.416214 0,0 -0.003,0.315605 0.0975,0.416214 0.10221,0.10192 0.42192,0.09751 0.42192,0.09751 z"
             sodipodi:nodetypes="cacacacac" /></g></g><path
         id="path26"
         style="fill:#030627;fill-opacity:1;stroke-width:4.06534;stroke-linecap:round;stroke-linejoin:round;paint-order:stroke fill markers"
         d="m -281.49775,287.37541 c -0.60325,0 -1.09229,0.4893 -1.09229,1.09287 3.2e-4,0.17189 0.0413,0.3421 0.11975,0.49546 l 2.09799,3.61193 1.49782,-0.17864 0.51432,-0.83502 -2.24267,-3.72003 c -0.20448,-0.29205 -0.53849,-0.46597 -0.89488,-0.46588 z"
         sodipodi:nodetypes="cccccccc" /><path
         id="path29"
         style="fill:#030627;fill-opacity:1;stroke-width:4.06534;stroke-linecap:round;stroke-linejoin:round;paint-order:stroke fill markers"
         d="m -281.49775,287.37541 c -0.60325,0 -1.09229,0.4893 -1.09229,1.09287 3.2e-4,0.17189 0.0413,0.3421 0.11975,0.49546 l 2.09799,3.61193 1.49782,-0.17864 0.51432,-0.83502 -2.24267,-3.72003 c -0.20448,-0.29205 -0.53849,-0.46597 -0.89488,-0.46588 z"
         sodipodi:nodetypes="cccccccc" /><path
         id="path32"
         style="fill:#030627;fill-opacity:1;stroke-width:4.06534;stroke-linecap:round;stroke-linejoin:round;paint-order:stroke fill markers"
         d="m -265.88588,287.37541 c 0.60325,0 1.09229,0.4893 1.09229,1.09287 -3.1e-4,0.17189 -0.0413,0.3421 -0.11976,0.49546 l -2.09798,3.61193 -1.49783,-0.17864 -0.51431,-0.83502 2.24267,-3.72003 c 0.20448,-0.29205 0.53848,-0.46597 0.89488,-0.46588 z"
         sodipodi:nodetypes="cccccccc" /><path
         id="path35"
         style="fill:#030627;fill-opacity:1;stroke-width:4.06534;stroke-linecap:round;stroke-linejoin:round;paint-order:stroke fill markers"
         d="m -265.88588,287.37541 c 0.60325,0 1.09229,0.4893 1.09229,1.09287 -3.1e-4,0.17189 -0.0413,0.3421 -0.11976,0.49546 l -2.09798,3.61193 -1.49783,-0.17864 -0.51431,-0.83502 2.24267,-3.72003 c 0.20448,-0.29205 0.53848,-0.46597 0.89488,-0.46588 z"
         sodipodi:nodetypes="cccccccc" /><path
         id="path42"
         style="fill:#030627;fill-opacity:1;stroke-width:5.42383;stroke-linecap:round;stroke-linejoin:round;paint-order:stroke fill markers"
         d="m -273.70061,290.6685 a 12.658992,12.665581 0 0 0 -12.58076,11.34162 h 25.16995 a 12.658992,12.665581 0 0 0 -12.58919,-11.34162 z" /><ellipse
         style="fill:#ffffff;fill-opacity:1;stroke-width:4.42497;stroke-linecap:round;stroke-linejoin:round;paint-order:stroke fill markers"
         id="ellipse42"
         cx="-217.03221"
         cy="303.9487"
         rx="1.2075214"
         ry="1.3439777"
         transform="matrix(1,0,-0.20556061,0.97864439,0,0)" /><ellipse
         style="fill:#ffffff;fill-opacity:1;stroke-width:4.41215;stroke-linecap:round;stroke-linejoin:round;paint-order:stroke fill markers"
         id="ellipse43"
         cx="321.07993"
         cy="302.1886"
         rx="1.2075214"
         ry="1.336195"
         transform="matrix(-1,0,0.17625566,0.98434442,0,0)" /></g></g></svg>
